<?xml version="1.0" encoding="UTF-8" standalone="no"?>
<!-- Created with Inkscape (http://www.inkscape.org/) -->

<svg
   xmlns:dc="http://purl.org/dc/elements/1.1/"
   xmlns:cc="http://creativecommons.org/ns#"
   xmlns:rdf="http://www.w3.org/1999/02/22-rdf-syntax-ns#"
   xmlns:svg="http://www.w3.org/2000/svg"
   xmlns="http://www.w3.org/2000/svg"
   xmlns:xlink="http://www.w3.org/1999/xlink"
   xmlns:sodipodi="http://sodipodi.sourceforge.net/DTD/sodipodi-0.dtd"
   xmlns:inkscape="http://www.inkscape.org/namespaces/inkscape"
   id="svg2"
   version="1.1"
   inkscape:version="0.47 r22583"
   width="1098.6208"
   height="670"
   sodipodi:docname="2path.svg">
  <metadata
     id="metadata8">
    <rdf:RDF>
      <cc:Work
         rdf:about="">
        <dc:format>image/svg+xml</dc:format>
        <dc:type
           rdf:resource="http://purl.org/dc/dcmitype/StillImage" />
        <dc:title />
      </cc:Work>
    </rdf:RDF>
  </metadata>
  <defs
     id="defs6">
    <inkscape:perspective
       sodipodi:type="inkscape:persp3d"
       inkscape:vp_x="0 : 0.5 : 1"
       inkscape:vp_y="0 : 1000 : 0"
       inkscape:vp_z="1 : 0.5 : 1"
       inkscape:persp3d-origin="0.5 : 0.33333333 : 1"
       id="perspective10" />
    <inkscape:perspective
       id="perspective14765"
       inkscape:persp3d-origin="0.5 : 0.33333333 : 1"
       inkscape:vp_z="1 : 0.5 : 1"
       inkscape:vp_y="0 : 1000 : 0"
       inkscape:vp_x="0 : 0.5 : 1"
       sodipodi:type="inkscape:persp3d" />
    <clipPath
       clipPathUnits="userSpaceOnUse"
       id="clipPath7978">
      <path
         d="m 5932.8,187.199 0,6033.601 -5745.601,0 0,-6033.601 5745.601,0 z"
         id="path7980" />
    </clipPath>
    <clipPath
       clipPathUnits="userSpaceOnUse"
       id="clipPath8072">
      <path
         d="m 5205.6,6818.4 0,619.2 -4435.202,0 0,-619.2 4435.202,0 z"
         id="path8074" />
    </clipPath>
    <clipPath
       clipPathUnits="userSpaceOnUse"
       id="clipPath13108">
      <path
         d="m 5205.6,6818.4 0,619.2 -4435.202,0 0,-619.2 4435.202,0 z"
         id="path13110" />
    </clipPath>
  </defs>
  <sodipodi:namedview
     pagecolor="#ffffff"
     bordercolor="#666666"
     borderopacity="1"
     objecttolerance="10"
     gridtolerance="10"
     guidetolerance="10"
     inkscape:pageopacity="0"
     inkscape:pageshadow="2"
     inkscape:window-width="1680"
     inkscape:window-height="975"
     id="namedview4"
     showgrid="false"
     inkscape:zoom="0.74615599"
     inkscape:cx="807.30201"
     inkscape:cy="396.8973"
     inkscape:window-x="0"
     inkscape:window-y="24"
     inkscape:window-maximized="1"
     inkscape:current-layer="svg2" />
  <image
     xlink:href="file:///home/naghaeep/Documents/RchyOptimyxLabMeeting/3d/0path.png"
     width="701"
     height="670"
     id="image12"
     x="397.62088"
     y="0" />
  <path
     d="m 216.02305,81.025769 99.9716,99.218781"
     style="fill:none;stroke:#bebebe;stroke-width:4.6875;stroke-linecap:round;stroke-linejoin:round;stroke-miterlimit:10;stroke-opacity:1;stroke-dasharray:none"
     id="path64-9" />
  <path
     d="m 147.64015,56.219063 1.1625,-4.16263 1.1625,-1.6875 1.175,-1.27487 1.1625,-1.0625 1.1625,-0.91263 1.1625,-0.82525 1.175,-0.73725 1.1625,-0.67475 1.1625,-0.61287 1.1625,-0.57463 1.175,-0.53762 1.1625,-0.51275 1.1625,-0.46238 1.175,-0.45025 1.1625,-0.42475 1.1625,-0.38775 1.1625,-0.375 1.175,-0.36225 1.1625,-0.33737 1.1625,-0.3125 1.175,-0.3125 1.1625,-0.28763 1.1625,-0.27487 1.1625,-0.25 1.175,-0.25 1.1625,-0.23788 1.1625,-0.21237 1.1625,-0.21238 1.175,-0.20025 1.1625,-0.17475 1.1625,-0.17475 1.175,-0.16262 1.1625,-0.16263 1.1625,-0.13775 1.1625,-0.13712 1.175,-0.125 1.1625,-0.11288 1.1625,-0.0995 1.1625,-0.10012 1.175,-0.0874 1.1625,-0.0753 1.1625,-0.0752 1.175,-0.0498 1.1625,-0.0625 1.1625,-0.0376 1.1625,-0.0376 1.175,-0.0249 1.1625,-0.0121 1.1625,-0.0128 1.1625,0 1.175,0.0128 1.1625,0.0121 1.1625,0.0249 1.175,0.0376 1.1625,0.0376 1.1625,0.0625 1.1625,0.0498 1.175,0.0752 1.1625,0.0753 1.1625,0.0874 1.1625,0.10012 1.175,0.0995 1.1625,0.11288 1.1625,0.125 1.175,0.13712 1.1625,0.13775 1.1625,0.16263 1.1625,0.16262 1.175,0.17475 1.1625,0.17475 1.1625,0.20025 1.175,0.21238 1.1625,0.21237 1.1625,0.23788 1.1625,0.25 1.175,0.25 1.1625,0.27487 1.1625,0.28763 1.1625,0.3125 1.175,0.3125 1.1625,0.33737 1.1625,0.36225 1.175,0.375 1.1625,0.38775 1.1625,0.42475 1.1625,0.45025 1.175,0.46238 1.1625,0.51275 1.1625,0.53762 1.1625,0.57463 1.175,0.61287 1.1625,0.67475 1.1625,0.73725 1.175,0.82525 1.1625,0.91263 1.1625,1.0625 1.1625,1.27487 1.175,1.6875 1.1625,4.16263 0,0 -1.1625,4.14987 -1.175,1.6875 -1.1625,1.28763 -1.1625,1.04975 -1.1625,0.92537 -1.175,0.8125 -1.1625,0.73725 -1.1625,0.67475 -1.175,0.625 -1.1625,0.57525 -1.1625,0.53763 -1.1625,0.5 -1.175,0.47512 -1.1625,0.437496 -1.1625,0.42475 -1.1625,0.39988 -1.175,0.375 -1.1625,0.35012 -1.1625,0.33738 -1.175,0.32525 -1.1625,0.29975 -1.1625,0.28762 -1.1625,0.27488 -1.175,0.26275 -1.1625,0.23725 -1.1625,0.23787 -1.1625,0.21238 -1.175,0.21237 -1.1625,0.20025 -1.1625,0.1875 -1.175,0.17475 -1.1625,0.16263 -1.1625,0.14987 -1.1625,0.14988 -1.175,0.125 -1.1625,0.125 -1.1625,0.11287 -1.175,0.11225 -1.1625,0.0874 -1.1625,0.0874 -1.1625,0.0752 -1.175,0.0753 -1.1625,0.0625 -1.1625,0.0497 -1.1625,0.0376 -1.175,0.0376 -1.1625,0.0249 -1.1625,0.0121 -1.175,0.0127 -1.1625,0 -1.1625,-0.0127 -1.1625,-0.0121 -1.175,-0.0249 -1.1625,-0.0376 -1.1625,-0.0376 -1.1625,-0.0497 -1.175,-0.0625 -1.1625,-0.0753 -1.1625,-0.0752 -1.175,-0.0874 -1.1625,-0.0874 -1.1625,-0.11225 -1.1625,-0.11287 -1.175,-0.125 -1.1625,-0.125 -1.1625,-0.14988 -1.1625,-0.14987 -1.175,-0.16263 -1.1625,-0.17475 -1.1625,-0.1875 -1.175,-0.20025 -1.1625,-0.21237 -1.1625,-0.21238 -1.1625,-0.23787 -1.175,-0.23725 -1.1625,-0.26275 -1.1625,-0.27488 -1.1625,-0.28762 -1.175,-0.29975 -1.1625,-0.32525 -1.1625,-0.33738 -1.175,-0.35012 -1.1625,-0.375 -1.1625,-0.39988 -1.1625,-0.42475 -1.175,-0.437496 -1.1625,-0.47512 -1.1625,-0.5 -1.175,-0.53763 -1.1625,-0.57525 -1.1625,-0.625 -1.1625,-0.67475 -1.175,-0.73725 -1.1625,-0.8125 -1.1625,-0.92537 -1.1625,-1.04975 -1.175,-1.28763 -1.1625,-1.6875 -1.1625,-4.14987"
     style="fill:#00ffff;fill-opacity:1;fill-rule:nonzero;stroke:none"
     id="path24" />
  <path
     d="m 147.64015,56.219063 1.1625,-4.16263 1.1625,-1.6875 1.175,-1.27487 1.1625,-1.0625 1.1625,-0.91263 1.1625,-0.82525 1.175,-0.73725 1.1625,-0.67475 1.1625,-0.61287 1.1625,-0.57463 1.175,-0.53762 1.1625,-0.51275 1.1625,-0.46238 1.175,-0.45025 1.1625,-0.42475 1.1625,-0.38775 1.1625,-0.375 1.175,-0.36225 1.1625,-0.33737 1.1625,-0.3125 1.175,-0.3125 1.1625,-0.28763 1.1625,-0.27487 1.1625,-0.25 1.175,-0.25 1.1625,-0.23788 1.1625,-0.21237 1.1625,-0.21238 1.175,-0.20025 1.1625,-0.17475 1.1625,-0.17475 1.175,-0.16262 1.1625,-0.16263 1.1625,-0.13775 1.1625,-0.13712 1.175,-0.125 1.1625,-0.11288 1.1625,-0.0995 1.1625,-0.10012 1.175,-0.0874 1.1625,-0.0753 1.1625,-0.0752 1.175,-0.0498 1.1625,-0.0625 1.1625,-0.0376 1.1625,-0.0376 1.175,-0.0249 1.1625,-0.0121 1.1625,-0.0128 1.1625,0 1.175,0.0128 1.1625,0.0121 1.1625,0.0249 1.175,0.0376 1.1625,0.0376 1.1625,0.0625 1.1625,0.0498 1.175,0.0752 1.1625,0.0753 1.1625,0.0874 1.1625,0.10012 1.175,0.0995 1.1625,0.11288 1.1625,0.125 1.175,0.13712 1.1625,0.13775 1.1625,0.16263 1.1625,0.16262 1.175,0.17475 1.1625,0.17475 1.1625,0.20025 1.175,0.21238 1.1625,0.21237 1.1625,0.23788 1.1625,0.25 1.175,0.25 1.1625,0.27487 1.1625,0.28763 1.1625,0.3125 1.175,0.3125 1.1625,0.33737 1.1625,0.36225 1.175,0.375 1.1625,0.38775 1.1625,0.42475 1.1625,0.45025 1.175,0.46238 1.1625,0.51275 1.1625,0.53762 1.1625,0.57463 1.175,0.61287 1.1625,0.67475 1.1625,0.73725 1.175,0.82525 1.1625,0.91263 1.1625,1.0625 1.1625,1.27487 1.175,1.6875 1.1625,4.16263 0,0 -1.1625,4.14987 -1.175,1.6875 -1.1625,1.28763 -1.1625,1.04975 -1.1625,0.92537 -1.175,0.8125 -1.1625,0.73725 -1.1625,0.67475 -1.175,0.625 -1.1625,0.57525 -1.1625,0.53763 -1.1625,0.5 -1.175,0.47512 -1.1625,0.437496 -1.1625,0.42475 -1.1625,0.39988 -1.175,0.375 -1.1625,0.35012 -1.1625,0.33738 -1.175,0.32525 -1.1625,0.29975 -1.1625,0.28762 -1.1625,0.27488 -1.175,0.26275 -1.1625,0.23725 -1.1625,0.23787 -1.1625,0.21238 -1.175,0.21237 -1.1625,0.20025 -1.1625,0.1875 -1.175,0.17475 -1.1625,0.16263 -1.1625,0.14987 -1.1625,0.14988 -1.175,0.125 -1.1625,0.125 -1.1625,0.11287 -1.175,0.11225 -1.1625,0.0874 -1.1625,0.0874 -1.1625,0.0752 -1.175,0.0753 -1.1625,0.0625 -1.1625,0.0497 -1.1625,0.0376 -1.175,0.0376 -1.1625,0.0249 -1.1625,0.0121 -1.175,0.0127 -1.1625,0 -1.1625,-0.0127 -1.1625,-0.0121 -1.175,-0.0249 -1.1625,-0.0376 -1.1625,-0.0376 -1.1625,-0.0497 -1.175,-0.0625 -1.1625,-0.0753 -1.1625,-0.0752 -1.175,-0.0874 -1.1625,-0.0874 -1.1625,-0.11225 -1.1625,-0.11287 -1.175,-0.125 -1.1625,-0.125 -1.1625,-0.14988 -1.1625,-0.14987 -1.175,-0.16263 -1.1625,-0.17475 -1.1625,-0.1875 -1.175,-0.20025 -1.1625,-0.21237 -1.1625,-0.21238 -1.1625,-0.23787 -1.175,-0.23725 -1.1625,-0.26275 -1.1625,-0.27488 -1.1625,-0.28762 -1.175,-0.29975 -1.1625,-0.32525 -1.1625,-0.33738 -1.175,-0.35012 -1.1625,-0.375 -1.1625,-0.39988 -1.1625,-0.42475 -1.175,-0.437496 -1.1625,-0.47512 -1.1625,-0.5 -1.175,-0.53763 -1.1625,-0.57525 -1.1625,-0.625 -1.1625,-0.67475 -1.175,-0.73725 -1.1625,-0.8125 -1.1625,-0.92537 -1.1625,-1.04975 -1.175,-1.28763 -1.1625,-1.6875 -1.1625,-4.14987 0,0"
     style="fill:none;stroke:#000000;stroke-width:0.9375;stroke-linecap:round;stroke-linejoin:round;stroke-miterlimit:10;stroke-opacity:1;stroke-dasharray:none"
     id="path26" />
  <g
     id="g28"
     transform="matrix(0,1.25,1.25,0,-194.57235,-34.193566)">
    <text
       transform="matrix(0,1,1,0,77.7102,283.896)"
       id="text30">
      <tspan
         style="font-size:15px;font-variant:normal;font-weight:normal;writing-mode:lr-tb;fill:#000000;fill-opacity:1;fill-rule:nonzero;stroke:none;font-family:Helvetica;-inkscape-font-specification:Helvetica"
         x="0 10.005 13.335 16.665001 20.834999 30 38.759998 49.59 57.93 61.259998 64.589996"
         y="0"
         sodipodi:role="line"
         id="tspan32">All T−Cells</tspan>
    </text>
  </g>
  <path
     d="m 54.71875,204.33869 0.95,-4.1625 0.9625,-1.6875 0.95,-1.275 0.9625,-1.0625 0.95,-0.9125 0.9625,-0.825 0.95,-0.7375 0.9625,-0.675 0.95,-0.6125 0.9625,-0.575 0.95,-0.5375 0.9625,-0.5125 0.95,-0.4625 0.9625,-0.45 0.95,-0.425 0.9625,-0.3875 0.95,-0.375 0.9625,-0.3625 0.95,-0.3375 0.9625,-0.3125 0.95,-0.3125 0.95,-0.2875 0.9625,-0.275 0.95,-0.25 0.9625,-0.25 0.95,-0.2375 0.9625,-0.2125 0.95,-0.2125 0.9625,-0.2 0.95,-0.175 0.9625,-0.175 0.950003,-0.1625 0.9625,-0.1625 0.95,-0.1375 0.9625,-0.1375 0.95,-0.125 0.9625,-0.1125 0.95,-0.1 0.9625,-0.1 0.95,-0.0875 0.9625,-0.075 0.95,-0.075 0.9625,-0.05 0.95,-0.0625 0.9625,-0.0375 0.95,-0.0375 0.9625,-0.025 0.949997,-0.0125 0.9625,-0.0125 0.95,0 0.9625,0.0125 0.95,0.0125 0.9625,0.025 0.95,0.0375 0.95,0.0375 0.9625,0.0625 0.95,0.05 0.9625,0.075 0.95,0.075 0.9625,0.0875 0.95,0.1 0.9625,0.1 0.95,0.1125 0.9625,0.125 0.95,0.1375 0.9625,0.1375 0.95,0.1625 0.9625,0.1625 0.95,0.175 0.9625,0.175 0.95,0.2 0.9625,0.2125 0.95,0.2125 0.9625,0.2375 0.95,0.25 0.9625,0.25 0.95,0.275 0.9625,0.2875 0.95,0.3125 0.9625,0.3125 0.95,0.3375 0.9625,0.3625 0.95,0.375 0.9625,0.3875 0.95,0.425 0.9625,0.45 0.95,0.4625 0.9625,0.5125 0.95,0.5375 0.95,0.575 0.9625,0.6125 0.95,0.675 0.9625,0.7375 0.95,0.825 0.9625,0.9125 0.95,1.0625 0.9625,1.275 0.95,1.6875 0.9625,4.1625 0,0 -0.9625,4.15 -0.95,1.6875 -0.9625,1.2875 -0.95,1.05 -0.9625,0.925 -0.95,0.8125 -0.9625,0.7375 -0.95,0.675 -0.9625,0.625 -0.95,0.575 -0.95,0.5375 -0.9625,0.5 -0.95,0.475 -0.9625,0.4375 -0.95,0.425 -0.9625,0.4 -0.95,0.375 -0.9625,0.35 -0.95,0.3375 -0.9625,0.325 -0.95,0.3 -0.9625,0.2875 -0.95,0.275 -0.9625,0.2625 -0.95,0.2375 -0.9625,0.2375 -0.95,0.2125 -0.9625,0.2125 -0.95,0.2 -0.9625,0.1875 -0.95,0.175 -0.9625,0.1625 -0.95,0.15 -0.9625,0.15 -0.95,0.125 -0.9625,0.125 -0.95,0.11251 -0.9625,0.1125 -0.95,0.0875 -0.9625,0.0875 -0.95,0.075 -0.9625,0.075 -0.95,0.0625 -0.9625,0.05 -0.95,0.0375 -0.95,0.0375 -0.9625,0.025 -0.95,0.0125 -0.9625,0.0125 -0.95,0 -0.9625,-0.0125 -0.949997,-0.0125 -0.9625,-0.025 -0.95,-0.0375 -0.9625,-0.0375 -0.95,-0.05 -0.9625,-0.0625 -0.95,-0.075 -0.9625,-0.075 -0.95,-0.0875 -0.9625,-0.0875 -0.95,-0.1125 -0.9625,-0.11251 -0.95,-0.125 -0.9625,-0.125 -0.95,-0.15 -0.9625,-0.15 -0.950003,-0.1625 -0.9625,-0.175 -0.95,-0.1875 -0.9625,-0.2 -0.95,-0.2125 -0.9625,-0.2125 -0.95,-0.2375 -0.9625,-0.2375 -0.95,-0.2625 -0.9625,-0.275 -0.95,-0.2875 -0.95,-0.3 -0.9625,-0.325 -0.95,-0.3375 -0.9625,-0.35 -0.95,-0.375 -0.9625,-0.4 -0.95,-0.425 -0.9625,-0.4375 -0.95,-0.475 -0.9625,-0.5 -0.95,-0.5375 -0.9625,-0.575 -0.95,-0.625 -0.9625,-0.675 -0.95,-0.7375 -0.9625,-0.8125 -0.95,-0.925 -0.9625,-1.05 -0.95,-1.2875 -0.9625,-1.6875 -0.95,-4.15"
     style="fill:#a4ffda;fill-opacity:1;fill-rule:nonzero;stroke:none"
     id="path34" />
  <path
     d="m 54.71875,204.33869 0.95,-4.1625 0.9625,-1.6875 0.95,-1.275 0.9625,-1.0625 0.95,-0.9125 0.9625,-0.825 0.95,-0.7375 0.9625,-0.675 0.95,-0.6125 0.9625,-0.575 0.95,-0.5375 0.9625,-0.5125 0.95,-0.4625 0.9625,-0.45 0.95,-0.425 0.9625,-0.3875 0.95,-0.375 0.9625,-0.3625 0.95,-0.3375 0.9625,-0.3125 0.95,-0.3125 0.95,-0.2875 0.9625,-0.275 0.95,-0.25 0.9625,-0.25 0.95,-0.2375 0.9625,-0.2125 0.95,-0.2125 0.9625,-0.2 0.95,-0.175 0.9625,-0.175 0.950003,-0.1625 0.9625,-0.1625 0.95,-0.1375 0.9625,-0.1375 0.95,-0.125 0.9625,-0.1125 0.95,-0.1 0.9625,-0.1 0.95,-0.0875 0.9625,-0.075 0.95,-0.075 0.9625,-0.05 0.95,-0.0625 0.9625,-0.0375 0.95,-0.0375 0.9625,-0.025 0.949997,-0.0125 0.9625,-0.0125 0.95,0 0.9625,0.0125 0.95,0.0125 0.9625,0.025 0.95,0.0375 0.95,0.0375 0.9625,0.0625 0.95,0.05 0.9625,0.075 0.95,0.075 0.9625,0.0875 0.95,0.1 0.9625,0.1 0.95,0.1125 0.9625,0.125 0.95,0.1375 0.9625,0.1375 0.95,0.1625 0.9625,0.1625 0.95,0.175 0.9625,0.175 0.95,0.2 0.9625,0.2125 0.95,0.2125 0.9625,0.2375 0.95,0.25 0.9625,0.25 0.95,0.275 0.9625,0.2875 0.95,0.3125 0.9625,0.3125 0.95,0.3375 0.9625,0.3625 0.95,0.375 0.9625,0.3875 0.95,0.425 0.9625,0.45 0.95,0.4625 0.9625,0.5125 0.95,0.5375 0.95,0.575 0.9625,0.6125 0.95,0.675 0.9625,0.7375 0.95,0.825 0.9625,0.9125 0.95,1.0625 0.9625,1.275 0.95,1.6875 0.9625,4.1625 0,0 -0.9625,4.15 -0.95,1.6875 -0.9625,1.2875 -0.95,1.05 -0.9625,0.925 -0.95,0.8125 -0.9625,0.7375 -0.95,0.675 -0.9625,0.625 -0.95,0.575 -0.95,0.5375 -0.9625,0.5 -0.95,0.475 -0.9625,0.4375 -0.95,0.425 -0.9625,0.4 -0.95,0.375 -0.9625,0.35 -0.95,0.3375 -0.9625,0.325 -0.95,0.3 -0.9625,0.2875 -0.95,0.275 -0.9625,0.2625 -0.95,0.2375 -0.9625,0.2375 -0.95,0.2125 -0.9625,0.2125 -0.95,0.2 -0.9625,0.1875 -0.95,0.175 -0.9625,0.1625 -0.95,0.15 -0.9625,0.15 -0.95,0.125 -0.9625,0.125 -0.95,0.11251 -0.9625,0.1125 -0.95,0.0875 -0.9625,0.0875 -0.95,0.075 -0.9625,0.075 -0.95,0.0625 -0.9625,0.05 -0.95,0.0375 -0.95,0.0375 -0.9625,0.025 -0.95,0.0125 -0.9625,0.0125 -0.95,0 -0.9625,-0.0125 -0.949997,-0.0125 -0.9625,-0.025 -0.95,-0.0375 -0.9625,-0.0375 -0.95,-0.05 -0.9625,-0.0625 -0.95,-0.075 -0.9625,-0.075 -0.95,-0.0875 -0.9625,-0.0875 -0.95,-0.1125 -0.9625,-0.11251 -0.95,-0.125 -0.9625,-0.125 -0.95,-0.15 -0.9625,-0.15 -0.950003,-0.1625 -0.9625,-0.175 -0.95,-0.1875 -0.9625,-0.2 -0.95,-0.2125 -0.9625,-0.2125 -0.95,-0.2375 -0.9625,-0.2375 -0.95,-0.2625 -0.9625,-0.275 -0.95,-0.2875 -0.95,-0.3 -0.9625,-0.325 -0.95,-0.3375 -0.9625,-0.35 -0.95,-0.375 -0.9625,-0.4 -0.95,-0.425 -0.9625,-0.4375 -0.95,-0.475 -0.9625,-0.5 -0.95,-0.5375 -0.9625,-0.575 -0.95,-0.625 -0.9625,-0.675 -0.95,-0.7375 -0.9625,-0.8125 -0.95,-0.925 -0.9625,-1.05 -0.95,-1.2875 -0.9625,-1.6875 -0.95,-4.15 0,0"
     style="fill:none;stroke:#000000;stroke-width:0.9375;stroke-linecap:round;stroke-linejoin:round;stroke-miterlimit:10;stroke-opacity:1;stroke-dasharray:none"
     id="path36" />
  <g
     id="g38"
     transform="matrix(0,1.25,1.25,0,-297.88125,-81.186287)">
    <text
       transform="matrix(0,1,1,0,233.8,292.221)"
       id="text40">
      <tspan
         style="font-size:15px;font-variant:normal;font-weight:normal;writing-mode:lr-tb;fill:#000000;fill-opacity:1;fill-rule:nonzero;stroke:none;font-family:Helvetica;-inkscape-font-specification:Helvetica"
         x="0 10.83 21.66 30 38.34 46.68"
         y="0"
         sodipodi:role="line"
         id="tspan42">CD127+</tspan>
    </text>
  </g>
  <path
     d="m 29.31875,398.28869 1.475,-4.15 1.4625,-1.6875 1.475,-1.2875 1.4625,-1.05 1.475,-0.925 1.4625,-0.8125 1.475,-0.7375 1.475,-0.675 1.4625,-0.625 1.475,-0.575 1.4625,-0.5375 1.475,-0.5 1.4625,-0.475 1.475,-0.4375 1.4625,-0.425 1.475,-0.4 1.4625,-0.375 1.475,-0.35 1.4625,-0.3375 1.475,-0.325 1.4625,-0.3 1.475,-0.2875 1.4625,-0.275 1.475,-0.2625 1.4625,-0.2375 1.475,-0.2375 1.475,-0.2125 1.4625,-0.2125 1.475,-0.2 1.4625,-0.1875 1.475,-0.175 1.4625,-0.1625 1.475,-0.15 1.4625,-0.15 1.475,-0.125 1.4625,-0.125 1.475,-0.1125 1.462503,-0.1125 1.475,-0.0875 1.4625,-0.0875 1.475,-0.075 1.4625,-0.075 1.475,-0.0625 1.4625,-0.05 1.475,-0.0375 1.4625,-0.0375 1.475,-0.025 1.475,-0.0125 1.462497,-0.0125 1.475,0 1.4625,0.0125 1.475,0.0125 1.4625,0.025 1.475,0.0375 1.4625,0.0375 1.475,0.05 1.4625,0.0625 1.475,0.075 1.4625,0.075 1.475,0.0875 1.4625,0.0875 1.475,0.1125 1.4625,0.1125 1.475,0.125 1.4625,0.125 1.475,0.15 1.475,0.15 1.4625,0.1625 1.475,0.175 1.4625,0.1875 1.475,0.2 1.4625,0.2125 1.475,0.2125 1.4625,0.2375 1.475,0.2375 1.4625,0.2625 1.475,0.275 1.4625,0.2875 1.475,0.3 1.4625,0.325 1.475,0.3375 1.4625,0.35 1.475,0.375 1.4625,0.4 1.475,0.425 1.475,0.4375 1.4625,0.475 1.475,0.5 1.4625,0.5375 1.475,0.575 1.4625,0.625 1.475,0.675 1.4625,0.7375 1.475,0.8125 1.4625,0.925 1.475,1.05 1.4625,1.2875 1.475,1.6875 1.4625,4.15 0,0 -1.4625,4.1625 -1.475,1.6875 -1.4625,1.275 -1.475,1.0625 -1.4625,0.9125 -1.475,0.825 -1.4625,0.7375 -1.475,0.675 -1.4625,0.6125 -1.475,0.575 -1.4625,0.5375 -1.475,0.5125 -1.4625,0.4625 -1.475,0.45 -1.475,0.425 -1.4625,0.3875 -1.475,0.375 -1.4625,0.3625 -1.475,0.3375 -1.4625,0.3125 -1.475,0.3125 -1.4625,0.2875 -1.475,0.275 -1.4625,0.25 -1.475,0.25 -1.4625,0.2375 -1.475,0.2125 -1.4625,0.2125 -1.475,0.2 -1.4625,0.175 -1.475,0.175 -1.4625,0.1625 -1.475,0.1625 -1.475,0.1375 -1.4625,0.1375 -1.475,0.125 -1.4625,0.1125 -1.475,0.1 -1.4625,0.1 -1.475,0.0875 -1.4625,0.075 -1.475,0.075 -1.4625,0.05 -1.475,0.0625 -1.4625,0.0375 -1.475,0.0375 -1.4625,0.025 -1.475,0.0125 -1.4625,0.0125 -1.475,0 -1.462497,-0.0125 -1.475,-0.0125 -1.475,-0.025 -1.4625,-0.0375 -1.475,-0.0375 -1.4625,-0.0625 -1.475,-0.05 -1.4625,-0.075 -1.475,-0.075 -1.4625,-0.0875 -1.475,-0.1 -1.462503,-0.1 -1.475,-0.1125 -1.4625,-0.125 -1.475,-0.1375 -1.4625,-0.1375 -1.475,-0.1625 -1.4625,-0.1625 -1.475,-0.175 -1.4625,-0.175 -1.475,-0.2 -1.4625,-0.2125 -1.475,-0.2125 -1.475,-0.2375 -1.4625,-0.25 -1.475,-0.25 -1.4625,-0.275 -1.475,-0.2875 -1.4625,-0.3125 -1.475,-0.3125 -1.4625,-0.3375 -1.475,-0.3625 -1.4625,-0.375 -1.475,-0.3875 -1.4625,-0.425 -1.475,-0.45 -1.4625,-0.4625 -1.475,-0.5125 -1.4625,-0.5375 -1.475,-0.575 -1.4625,-0.6125 -1.475,-0.675 -1.475,-0.7375 -1.4625,-0.825 -1.475,-0.9125 -1.4625,-1.0625 -1.475,-1.275 -1.4625,-1.6875 -1.475,-4.1625"
     style="fill:#c0ffb8;fill-opacity:1;fill-rule:nonzero;stroke:none"
     id="path44" />
  <path
     d="m 29.31875,398.28869 1.475,-4.15 1.4625,-1.6875 1.475,-1.2875 1.4625,-1.05 1.475,-0.925 1.4625,-0.8125 1.475,-0.7375 1.475,-0.675 1.4625,-0.625 1.475,-0.575 1.4625,-0.5375 1.475,-0.5 1.4625,-0.475 1.475,-0.4375 1.4625,-0.425 1.475,-0.4 1.4625,-0.375 1.475,-0.35 1.4625,-0.3375 1.475,-0.325 1.4625,-0.3 1.475,-0.2875 1.4625,-0.275 1.475,-0.2625 1.4625,-0.2375 1.475,-0.2375 1.475,-0.2125 1.4625,-0.2125 1.475,-0.2 1.4625,-0.1875 1.475,-0.175 1.4625,-0.1625 1.475,-0.15 1.4625,-0.15 1.475,-0.125 1.4625,-0.125 1.475,-0.1125 1.462503,-0.1125 1.475,-0.0875 1.4625,-0.0875 1.475,-0.075 1.4625,-0.075 1.475,-0.0625 1.4625,-0.05 1.475,-0.0375 1.4625,-0.0375 1.475,-0.025 1.475,-0.0125 1.462497,-0.0125 1.475,0 1.4625,0.0125 1.475,0.0125 1.4625,0.025 1.475,0.0375 1.4625,0.0375 1.475,0.05 1.4625,0.0625 1.475,0.075 1.4625,0.075 1.475,0.0875 1.4625,0.0875 1.475,0.1125 1.4625,0.1125 1.475,0.125 1.4625,0.125 1.475,0.15 1.475,0.15 1.4625,0.1625 1.475,0.175 1.4625,0.1875 1.475,0.2 1.4625,0.2125 1.475,0.2125 1.4625,0.2375 1.475,0.2375 1.4625,0.2625 1.475,0.275 1.4625,0.2875 1.475,0.3 1.4625,0.325 1.475,0.3375 1.4625,0.35 1.475,0.375 1.4625,0.4 1.475,0.425 1.475,0.4375 1.4625,0.475 1.475,0.5 1.4625,0.5375 1.475,0.575 1.4625,0.625 1.475,0.675 1.4625,0.7375 1.475,0.8125 1.4625,0.925 1.475,1.05 1.4625,1.2875 1.475,1.6875 1.4625,4.15 0,0 -1.4625,4.1625 -1.475,1.6875 -1.4625,1.275 -1.475,1.0625 -1.4625,0.9125 -1.475,0.825 -1.4625,0.7375 -1.475,0.675 -1.4625,0.6125 -1.475,0.575 -1.4625,0.5375 -1.475,0.5125 -1.4625,0.4625 -1.475,0.45 -1.475,0.425 -1.4625,0.3875 -1.475,0.375 -1.4625,0.3625 -1.475,0.3375 -1.4625,0.3125 -1.475,0.3125 -1.4625,0.2875 -1.475,0.275 -1.4625,0.25 -1.475,0.25 -1.4625,0.2375 -1.475,0.2125 -1.4625,0.2125 -1.475,0.2 -1.4625,0.175 -1.475,0.175 -1.4625,0.1625 -1.475,0.1625 -1.475,0.1375 -1.4625,0.1375 -1.475,0.125 -1.4625,0.1125 -1.475,0.1 -1.4625,0.1 -1.475,0.0875 -1.4625,0.075 -1.475,0.075 -1.4625,0.05 -1.475,0.0625 -1.4625,0.0375 -1.475,0.0375 -1.4625,0.025 -1.475,0.0125 -1.4625,0.0125 -1.475,0 -1.462497,-0.0125 -1.475,-0.0125 -1.475,-0.025 -1.4625,-0.0375 -1.475,-0.0375 -1.4625,-0.0625 -1.475,-0.05 -1.4625,-0.075 -1.475,-0.075 -1.4625,-0.0875 -1.475,-0.1 -1.462503,-0.1 -1.475,-0.1125 -1.4625,-0.125 -1.475,-0.1375 -1.4625,-0.1375 -1.475,-0.1625 -1.4625,-0.1625 -1.475,-0.175 -1.4625,-0.175 -1.475,-0.2 -1.4625,-0.2125 -1.475,-0.2125 -1.475,-0.2375 -1.4625,-0.25 -1.475,-0.25 -1.4625,-0.275 -1.475,-0.2875 -1.4625,-0.3125 -1.475,-0.3125 -1.4625,-0.3375 -1.475,-0.3625 -1.4625,-0.375 -1.475,-0.3875 -1.4625,-0.425 -1.475,-0.45 -1.4625,-0.4625 -1.475,-0.5125 -1.4625,-0.5375 -1.475,-0.575 -1.4625,-0.6125 -1.475,-0.675 -1.475,-0.7375 -1.4625,-0.825 -1.475,-0.9125 -1.4625,-1.0625 -1.475,-1.275 -1.4625,-1.6875 -1.475,-4.1625 0,0"
     style="fill:none;stroke:#000000;stroke-width:0.9375;stroke-linecap:round;stroke-linejoin:round;stroke-miterlimit:10;stroke-opacity:1;stroke-dasharray:none"
     id="path46" />
  <g
     id="g48"
     transform="matrix(0,1.25,1.25,0,-297.88125,-81.186287)">
    <text
       transform="matrix(0,1,1,0,388.97,272.841)"
       id="text50">
      <tspan
         style="font-size:15px;font-variant:normal;font-weight:normal;writing-mode:lr-tb;fill:#000000;fill-opacity:1;fill-rule:nonzero;stroke:none;font-family:Helvetica;-inkscape-font-specification:Helvetica"
         x="0 10.83 21.66 30 38.759998 49.59 60.419998 68.760002 77.099998 85.440002"
         y="0"
         sodipodi:role="line"
         id="tspan52">CD4+CD127+</tspan>
    </text>
  </g>
  <path
     d="m 0.46875,593.40119 2.05,-4.15 2.05,-1.6875 2.05,-1.2875 2.05,-1.05 2.0625,-0.92499 2.05,-0.8125 2.05,-0.7375 2.05,-0.675 2.05,-0.625 2.05,-0.575 2.0625,-0.5375 2.05,-0.5 2.05,-0.475 2.05,-0.4375 2.05,-0.425 2.05,-0.4 2.0625,-0.375 2.05,-0.35 2.05,-0.3375 2.05,-0.325 2.05,-0.3 2.05,-0.2875 2.0625,-0.275 2.05,-0.2625 2.05,-0.2375 2.05,-0.2375 2.05,-0.2125 2.05,-0.2125 2.05,-0.2 2.0625,-0.1875 2.05,-0.175 2.05,-0.1625 2.05,-0.15 2.05,-0.15 2.05,-0.125 2.0625,-0.125 2.05,-0.1125 2.05,-0.1125 2.05,-0.0875 2.05,-0.0875 2.05,-0.075 2.062503,-0.075 2.05,-0.0625 2.05,-0.05 2.05,-0.0375 2.05,-0.0375 2.05,-0.025 2.0625,-0.0125 2.049997,-0.0125 2.05,0 2.05,0.0125 2.05,0.0125 2.05,0.025 2.0625,0.0375 2.05,0.0375 2.05,0.05 2.05,0.0625 2.05,0.075 2.05,0.075 2.0625,0.0875 2.05,0.0875 2.05,0.1125 2.05,0.1125 2.05,0.125 2.05,0.125 2.0625,0.15 2.05,0.15 2.05,0.1625 2.05,0.175 2.05,0.1875 2.05,0.2 2.05,0.2125 2.0625,0.2125 2.05,0.2375 2.05,0.2375 2.05,0.2625 2.05,0.275 2.05,0.2875 2.0625,0.3 2.05,0.325 2.05,0.3375 2.05,0.35 2.05,0.375 2.05,0.4 2.0625,0.425 2.05,0.4375 2.05,0.475 2.05,0.5 2.05,0.5375 2.05,0.575 2.0625,0.625 2.05,0.675 2.05,0.7375 2.05,0.8125 2.05,0.92499 2.05,1.05 2.0625,1.2875 2.05,1.6875 2.05,4.15 0,0 -2.05,4.1625 -2.05,1.6875 -2.0625,1.275 -2.05,1.0625 -2.05,0.9125 -2.05,0.82501 -2.05,0.73749 -2.05,0.675 -2.0625,0.6125 -2.05,0.575 -2.05,0.5375 -2.05,0.5125 -2.05,0.4625 -2.05,0.45001 -2.0625,0.42499 -2.05,0.38751 -2.05,0.375 -2.05,0.36249 -2.05,0.3375 -2.05,0.3125 -2.0625,0.3125 -2.05,0.2875 -2.05,0.275 -2.05,0.25 -2.05,0.25 -2.05,0.2375 -2.0625,0.2125 -2.05,0.2125 -2.05,0.2 -2.05,0.175 -2.05,0.175 -2.05,0.1625 -2.05,0.1625 -2.0625,0.1375 -2.05,0.1375 -2.05,0.125 -2.05,0.1125 -2.05,0.1 -2.05,0.1 -2.0625,0.0875 -2.05,0.075 -2.05,0.075 -2.05,0.05 -2.05,0.0625 -2.05,0.0375 -2.0625,0.0375 -2.05,0.025 -2.05,0.0125 -2.05,0.0125 -2.05,0 -2.049997,-0.0125 -2.0625,-0.0125 -2.05,-0.025 -2.05,-0.0375 -2.05,-0.0375 -2.05,-0.0625 -2.05,-0.05 -2.062503,-0.075 -2.05,-0.075 -2.05,-0.0875 -2.05,-0.1 -2.05,-0.1 -2.05,-0.1125 -2.0625,-0.125 -2.05,-0.1375 -2.05,-0.1375 -2.05,-0.1625 -2.05,-0.1625 -2.05,-0.175 -2.0625,-0.175 -2.05,-0.2 -2.05,-0.2125 -2.05,-0.2125 -2.05,-0.2375 -2.05,-0.25 -2.05,-0.25 -2.0625,-0.275 -2.05,-0.2875 -2.05,-0.3125 -2.05,-0.3125 -2.05,-0.3375 -2.05,-0.36249 -2.0625,-0.375 -2.05,-0.38751 -2.05,-0.42499 -2.05,-0.45001 -2.05,-0.4625 -2.05,-0.5125 -2.0625,-0.5375 -2.05,-0.575 -2.05,-0.6125 -2.05,-0.675 -2.05,-0.73749 -2.05,-0.82501 -2.0625,-0.9125 -2.05,-1.0625 -2.05,-1.275 -2.05,-1.6875 -2.05,-4.1625"
     style="fill:#edff37;fill-opacity:1;fill-rule:nonzero;stroke:none"
     id="path54" />
  <path
     d="m 0.46875,593.40119 2.05,-4.15 2.05,-1.6875 2.05,-1.2875 2.05,-1.05 2.0625,-0.92499 2.05,-0.8125 2.05,-0.7375 2.05,-0.675 2.05,-0.625 2.05,-0.575 2.0625,-0.5375 2.05,-0.5 2.05,-0.475 2.05,-0.4375 2.05,-0.425 2.05,-0.4 2.0625,-0.375 2.05,-0.35 2.05,-0.3375 2.05,-0.325 2.05,-0.3 2.05,-0.2875 2.0625,-0.275 2.05,-0.2625 2.05,-0.2375 2.05,-0.2375 2.05,-0.2125 2.05,-0.2125 2.05,-0.2 2.0625,-0.1875 2.05,-0.175 2.05,-0.1625 2.05,-0.15 2.05,-0.15 2.05,-0.125 2.0625,-0.125 2.05,-0.1125 2.05,-0.1125 2.05,-0.0875 2.05,-0.0875 2.05,-0.075 2.062503,-0.075 2.05,-0.0625 2.05,-0.05 2.05,-0.0375 2.05,-0.0375 2.05,-0.025 2.0625,-0.0125 2.049997,-0.0125 2.05,0 2.05,0.0125 2.05,0.0125 2.05,0.025 2.0625,0.0375 2.05,0.0375 2.05,0.05 2.05,0.0625 2.05,0.075 2.05,0.075 2.0625,0.0875 2.05,0.0875 2.05,0.1125 2.05,0.1125 2.05,0.125 2.05,0.125 2.0625,0.15 2.05,0.15 2.05,0.1625 2.05,0.175 2.05,0.1875 2.05,0.2 2.05,0.2125 2.0625,0.2125 2.05,0.2375 2.05,0.2375 2.05,0.2625 2.05,0.275 2.05,0.2875 2.0625,0.3 2.05,0.325 2.05,0.3375 2.05,0.35 2.05,0.375 2.05,0.4 2.0625,0.425 2.05,0.4375 2.05,0.475 2.05,0.5 2.05,0.5375 2.05,0.575 2.0625,0.625 2.05,0.675 2.05,0.7375 2.05,0.8125 2.05,0.92499 2.05,1.05 2.0625,1.2875 2.05,1.6875 2.05,4.15 0,0 -2.05,4.1625 -2.05,1.6875 -2.0625,1.275 -2.05,1.0625 -2.05,0.9125 -2.05,0.82501 -2.05,0.73749 -2.05,0.675 -2.0625,0.6125 -2.05,0.575 -2.05,0.5375 -2.05,0.5125 -2.05,0.4625 -2.05,0.45001 -2.0625,0.42499 -2.05,0.38751 -2.05,0.375 -2.05,0.36249 -2.05,0.3375 -2.05,0.3125 -2.0625,0.3125 -2.05,0.2875 -2.05,0.275 -2.05,0.25 -2.05,0.25 -2.05,0.2375 -2.0625,0.2125 -2.05,0.2125 -2.05,0.2 -2.05,0.175 -2.05,0.175 -2.05,0.1625 -2.05,0.1625 -2.0625,0.1375 -2.05,0.1375 -2.05,0.125 -2.05,0.1125 -2.05,0.1 -2.05,0.1 -2.0625,0.0875 -2.05,0.075 -2.05,0.075 -2.05,0.05 -2.05,0.0625 -2.05,0.0375 -2.0625,0.0375 -2.05,0.025 -2.05,0.0125 -2.05,0.0125 -2.05,0 -2.049997,-0.0125 -2.0625,-0.0125 -2.05,-0.025 -2.05,-0.0375 -2.05,-0.0375 -2.05,-0.0625 -2.05,-0.05 -2.062503,-0.075 -2.05,-0.075 -2.05,-0.0875 -2.05,-0.1 -2.05,-0.1 -2.05,-0.1125 -2.0625,-0.125 -2.05,-0.1375 -2.05,-0.1375 -2.05,-0.1625 -2.05,-0.1625 -2.05,-0.175 -2.0625,-0.175 -2.05,-0.2 -2.05,-0.2125 -2.05,-0.2125 -2.05,-0.2375 -2.05,-0.25 -2.05,-0.25 -2.0625,-0.275 -2.05,-0.2875 -2.05,-0.3125 -2.05,-0.3125 -2.05,-0.3375 -2.05,-0.36249 -2.0625,-0.375 -2.05,-0.38751 -2.05,-0.42499 -2.05,-0.45001 -2.05,-0.4625 -2.05,-0.5125 -2.0625,-0.5375 -2.05,-0.575 -2.05,-0.6125 -2.05,-0.675 -2.05,-0.73749 -2.05,-0.82501 -2.0625,-0.9125 -2.05,-1.0625 -2.05,-1.275 -2.05,-1.6875 -2.05,-4.1625 0,0"
     style="fill:none;stroke:#000000;stroke-width:0.9375;stroke-linecap:round;stroke-linejoin:round;stroke-miterlimit:10;stroke-opacity:1;stroke-dasharray:none"
     id="path56" />
  <g
     id="g58"
     transform="matrix(0,1.25,1.25,0,-297.88125,-81.186287)">
    <text
       transform="matrix(0,1,1,0,545.06,248.047)"
       id="text60">
      <tspan
         style="font-size:15px;font-variant:normal;font-weight:normal;writing-mode:lr-tb;fill:#000000;fill-opacity:1;fill-rule:nonzero;stroke:none;font-family:Helvetica;-inkscape-font-specification:Helvetica"
         x="0 10.83 21.66 30 38.759998 49.59 60.419998 71.25 79.589996 88.349998 99.18 110.01 118.35 126.69 135.03"
         y="0"
         sodipodi:role="line"
         id="tspan62">CD4+CCR5−CD127+</tspan>
    </text>
  </g>
  <path
     d="m 202.91585,79.912239 -99.2188,99.971611"
     style="fill:none;stroke:#bebebe;stroke-width:4.6875;stroke-linecap:round;stroke-linejoin:round;stroke-miterlimit:10;stroke-opacity:1;stroke-dasharray:none"
     id="path64" />
  <path
     d="m 107.07825,167.09003 -3.3812,12.79382 12.7679,-3.47776"
     style="fill:none;stroke:#bebebe;stroke-width:4.6875;stroke-linecap:round;stroke-linejoin:round;stroke-miterlimit:10;stroke-opacity:1;stroke-dasharray:none"
     id="path68" />
  <g
     id="g70"
     transform="matrix(0,1.25,1.25,0,-280.20015,-68.604997)">
    <text
       transform="matrix(0,1,1,0,155.29,296.6)"
       id="text72">
      <tspan
         style="font-size:15px;font-variant:normal;font-weight:normal;writing-mode:lr-tb;fill:#000000;fill-opacity:1;fill-rule:nonzero;stroke:none;font-family:Helvetica;-inkscape-font-specification:Helvetica"
         x="0 10.83 21.66 30 38.34"
         y="0"
         sodipodi:role="line"
         id="tspan74">CD127</tspan>
    </text>
  </g>
  <path
     d="m 102.04375,226.27619 0,139.6875"
     style="fill:none;stroke:#bebebe;stroke-width:4.6875;stroke-linecap:round;stroke-linejoin:round;stroke-miterlimit:10;stroke-opacity:1;stroke-dasharray:none"
     id="path76" />
  <path
     d="m 102.04375,353.11369 0,12.85"
     style="fill:none;stroke:#bebebe;stroke-width:4.6875;stroke-linecap:round;stroke-linejoin:round;stroke-miterlimit:10;stroke-opacity:1;stroke-dasharray:none"
     id="path78" />
  <path
     d="m 95.431253,354.51369 6.612497,11.45 6.6125,-11.45"
     style="fill:none;stroke:#bebebe;stroke-width:4.6875;stroke-linecap:round;stroke-linejoin:round;stroke-miterlimit:10;stroke-opacity:1;stroke-dasharray:none"
     id="path80" />
  <g
     id="g82"
     transform="matrix(0,1.25,1.25,0,-320.06305,-84.973417)">
    <text
       transform="matrix(0,1,1,0,311.38,304.94)"
       id="text84">
      <tspan
         style="font-size:15px;font-variant:normal;font-weight:normal;writing-mode:lr-tb;fill:#000000;fill-opacity:1;fill-rule:nonzero;stroke:none;font-family:Helvetica;-inkscape-font-specification:Helvetica"
         x="0 10.83 21.66"
         y="0"
         sodipodi:role="line"
         id="tspan86">CD4</tspan>
    </text>
  </g>
  <path
     d="m 102.04375,420.22619 0,140.85"
     style="fill:none;stroke:#bebebe;stroke-width:4.6875;stroke-linecap:round;stroke-linejoin:round;stroke-miterlimit:10;stroke-opacity:1;stroke-dasharray:none"
     id="path88" />
  <path
     d="m 102.04375,548.22619 0,12.85"
     style="fill:none;stroke:#bebebe;stroke-width:4.6875;stroke-linecap:round;stroke-linejoin:round;stroke-miterlimit:10;stroke-opacity:1;stroke-dasharray:none"
     id="path90" />
  <path
     d="m 95.431253,549.62619 6.612497,11.45001 6.6125,-11.45001"
     style="fill:none;stroke:#bebebe;stroke-width:4.6875;stroke-linecap:round;stroke-linejoin:round;stroke-miterlimit:10;stroke-opacity:1;stroke-dasharray:none"
     id="path92" />
  <g
     id="g7972"
     transform="matrix(0,0.125,0.125,0,-94.38895,-15.148586)">
    <g
       id="g7974">
      <g
         id="g7976"
         clip-path="url(#clipPath7978)">
        <path
           d="m 1757.8005,3001.8348 -33.3,6 -13.5,5.9 -10.2,6 -8.5,6 -7.3,5.9 -6.6,6 -5.9,6 -5.4,5.9 -4.9,6 -4.6,6 -4.3,6 -4.1,5.9 -3.7,6 -3.6,6 -3.4,5.9 -3.1,6 -3,6 -2.9,5.9 -2.7,6 -2.5,6 -2.5,6 -2.3,5.9 -2.2,6 -2,6 -2,5.9 -1.9,6 -1.7,6 -1.7,5.9 -1.6,6 -1.4,6 -1.4,5.9 -1.3,6 -1.3,6 -1.1,6 -1.1,5.9 -1,6 -0.9,6 -0.8,5.9 -0.8,6 -0.7,6 -0.6,5.9 -0.6,6 -0.4,6 -0.5,6 -0.3,5.9 -0.3,6 -0.2,6 -0.1,5.9 -0.1,6 0,6 0.1,5.9 0.1,6 0.2,6 0.3,5.9 0.3,6 0.5,6 0.4,6 0.6,5.9 0.6,6 0.7,6 0.8,5.9 0.8,6 0.9,6 1,5.9 1.1,6 1.1,6 1.3,6 1.3,5.9 1.4,6 1.4,6 1.6,5.9 1.7,6 1.7,6 1.9,5.9 2,6 2,6 2.2,5.9 2.3,6 2.5,6 2.5,6 2.7,5.9 2.9,6 3,6 3.1,5.9 3.4,6 3.6,6 3.7,5.9 4.1,6 4.3,6 4.6,6 4.9,5.9 5.4,6 5.9,6 6.6,5.9 7.3,6 8.5,6 10.2,5.9 13.5,6 33.3,6 0,0 33.2,-6 13.5,-6 10.3,-5.9 8.4,-6 7.4,-6 6.5,-5.9 5.9,-6 5.4,-6 5,-5.9 4.6,-6 4.3,-6 4,-6 3.8,-5.9 3.5,-6 3.4,-6 3.2,-5.9 3,-6 2.8,-6 2.7,-5.9 2.6,-6 2.4,-6 2.3,-6 2.2,-5.9 2.1,-6 1.9,-6 1.9,-5.9 1.7,-6 1.7,-6 1.6,-5.9 1.5,-6 1.4,-6 1.3,-5.9 1.2,-6 1.2,-6 1,-6 1,-5.9 0.9,-6 0.9,-6 0.7,-5.9 0.7,-6 0.6,-6 0.6,-5.9 0.5,-6 0.4,-6 0.3,-6 0.3,-5.9 0.2,-6 0.1,-6 0.1,-5.9 0,-6 -0.1,-6 -0.1,-5.9 -0.2,-6 -0.3,-6 -0.3,-5.9 -0.4,-6 -0.5,-6 -0.6,-6 -0.6,-5.9 -0.7,-6 -0.7,-6 -0.9,-5.9 -0.9,-6 -1,-6 -1,-5.9 -1.2,-6 -1.2,-6 -1.3,-6 -1.4,-5.9 -1.5,-6 -1.6,-6 -1.7,-5.9 -1.7,-6 -1.9,-6 -1.9,-5.9 -2.1,-6 -2.2,-6 -2.3,-5.9 -2.4,-6 -2.6,-6 -2.7,-6 -2.8,-5.9 -3,-6 -3.2,-6 -3.4,-5.9 -3.5,-6 -3.8,-6 -4,-5.9 -4.3,-6 -4.6,-6 -5,-6 -5.4,-5.9 -5.9,-6 -6.5,-6 -7.4,-5.9 -8.4,-6 -10.3,-6 -13.5,-5.9 -33.2,-6"
           style="fill:#8effeb;fill-opacity:1;fill-rule:nonzero;stroke:none"
           id="path7992" />
        <path
           d="m 1757.8005,3001.8348 -33.3,6 -13.5,5.9 -10.2,6 -8.5,6 -7.3,5.9 -6.6,6 -5.9,6 -5.4,5.9 -4.9,6 -4.6,6 -4.3,6 -4.1,5.9 -3.7,6 -3.6,6 -3.4,5.9 -3.1,6 -3,6 -2.9,5.9 -2.7,6 -2.5,6 -2.5,6 -2.3,5.9 -2.2,6 -2,6 -2,5.9 -1.9,6 -1.7,6 -1.7,5.9 -1.6,6 -1.4,6 -1.4,5.9 -1.3,6 -1.3,6 -1.1,6 -1.1,5.9 -1,6 -0.9,6 -0.8,5.9 -0.8,6 -0.7,6 -0.6,5.9 -0.6,6 -0.4,6 -0.5,6 -0.3,5.9 -0.3,6 -0.2,6 -0.1,5.9 -0.1,6 0,6 0.1,5.9 0.1,6 0.2,6 0.3,5.9 0.3,6 0.5,6 0.4,6 0.6,5.9 0.6,6 0.7,6 0.8,5.9 0.8,6 0.9,6 1,5.9 1.1,6 1.1,6 1.3,6 1.3,5.9 1.4,6 1.4,6 1.6,5.9 1.7,6 1.7,6 1.9,5.9 2,6 2,6 2.2,5.9 2.3,6 2.5,6 2.5,6 2.7,5.9 2.9,6 3,6 3.1,5.9 3.4,6 3.6,6 3.7,5.9 4.1,6 4.3,6 4.6,6 4.9,5.9 5.4,6 5.9,6 6.6,5.9 7.3,6 8.5,6 10.2,5.9 13.5,6 33.3,6 0,0 33.2,-6 13.5,-6 10.3,-5.9 8.4,-6 7.4,-6 6.5,-5.9 5.9,-6 5.4,-6 5,-5.9 4.6,-6 4.3,-6 4,-6 3.8,-5.9 3.5,-6 3.4,-6 3.2,-5.9 3,-6 2.8,-6 2.7,-5.9 2.6,-6 2.4,-6 2.3,-6 2.2,-5.9 2.1,-6 1.9,-6 1.9,-5.9 1.7,-6 1.7,-6 1.6,-5.9 1.5,-6 1.4,-6 1.3,-5.9 1.2,-6 1.2,-6 1,-6 1,-5.9 0.9,-6 0.9,-6 0.7,-5.9 0.7,-6 0.6,-6 0.6,-5.9 0.5,-6 0.4,-6 0.3,-6 0.3,-5.9 0.2,-6 0.1,-6 0.1,-5.9 0,-6 -0.1,-6 -0.1,-5.9 -0.2,-6 -0.3,-6 -0.3,-5.9 -0.4,-6 -0.5,-6 -0.6,-6 -0.6,-5.9 -0.7,-6 -0.7,-6 -0.9,-5.9 -0.9,-6 -1,-6 -1,-5.9 -1.2,-6 -1.2,-6 -1.3,-6 -1.4,-5.9 -1.5,-6 -1.6,-6 -1.7,-5.9 -1.7,-6 -1.9,-6 -1.9,-5.9 -2.1,-6 -2.2,-6 -2.3,-5.9 -2.4,-6 -2.6,-6 -2.7,-6 -2.8,-5.9 -3,-6 -3.2,-6 -3.4,-5.9 -3.5,-6 -3.8,-6 -4,-5.9 -4.3,-6 -4.6,-6 -5,-6 -5.4,-5.9 -5.9,-6 -6.5,-6 -7.4,-5.9 -8.4,-6 -10.3,-6 -13.5,-5.9 -33.2,-6 0,0"
           style="fill:none;stroke:#000000;stroke-width:7.5;stroke-linecap:round;stroke-linejoin:round;stroke-miterlimit:10;stroke-opacity:1;stroke-dasharray:none"
           id="path7994" />
        <g
           id="g7996"
           transform="matrix(10,0,0,10,-526.39949,97.934789)">
          <text
             transform="matrix(0,1,1,0,234.16,299.268)"
             id="text7998">
            <tspan
               style="font-size:16px;font-variant:normal;font-weight:normal;writing-mode:lr-tb;fill:#000000;fill-opacity:1;fill-rule:nonzero;stroke:none;font-family:Helvetica;-inkscape-font-specification:Helvetica"
               x="0 11.552 23.104 32"
               y="0"
               sodipodi:role="line"
               id="tspan8000">CD4+</tspan>
          </text>
        </g>
        <path
           d="m 3309.4005,2752.5348 -33.2,11 -13.5,11 -10.3,11 -8.4,11 -7.4,11 -6.5,11 -5.9,11 -5.4,11 -5,11 -4.6,11 -4.3,11 -4,11 -3.8,11.1 -3.5,11 -3.4,11 -3.2,11 -3,11 -2.8,11 -2.7,11 -2.6,11 -2.4,11 -2.3,11 -2.2,11 -2.1,11 -1.9,11 -1.9,11 -1.7,11 -1.7,11 -1.6,11.1 -1.5,11 -1.4,11 -1.3,11 -1.2,11 -1.2,11 -1,11 -1,11 -0.9,11 -0.9,11 -0.7,11 -0.7,11 -0.6,11 -0.6,11 -0.5,11 -0.4,11 -0.3,11.1 -0.3,11 -0.2,11 -0.1,11 -0.1,11 0,11 0.1,11 0.1,11 0.2,11 0.3,11 0.3,11 0.4,11 0.5,11 0.6,11 0.6,11 0.7,11 0.7,11.1 0.9,11 0.9,11 1,11 1,11 1.2,11 1.2,11 1.3,11 1.4,11 1.5,11 1.6,11 1.7,11 1.7,11 1.9,11 1.9,11 2.1,11.1 2.2,11 2.3,11 2.4,11 2.6,11 2.7,11 2.8,11 3,11 3.2,11 3.4,11 3.5,11 3.8,11 4,11 4.3,11 4.6,11 5,11 5.4,11.1 5.9,11 6.5,11 7.4,11 8.4,11 10.3,11 13.5,11 33.2,11 0,0 33.3,-11 13.5,-11 10.2,-11 8.5,-11 7.3,-11 6.6,-11 5.9,-11 5.4,-11.1 4.9,-11 4.6,-11 4.3,-11 4.1,-11 3.7,-11 3.6,-11 3.4,-11 3.1,-11 3,-11 2.9,-11 2.7,-11 2.5,-11 2.5,-11 2.3,-11 2.2,-11 2,-11.1 2,-11 1.9,-11 1.7,-11 1.7,-11 1.6,-11 1.4,-11 1.4,-11 1.3,-11 1.3,-11 1.1,-11 1.1,-11 1,-11 0.9,-11 0.8,-11 0.8,-11.1 0.7,-11 0.6,-11 0.6,-11 0.4,-11 0.5,-11 0.3,-11 0.3,-11 0.2,-11 0.1,-11 0.1,-11 0,-11 -0.1,-11 -0.1,-11 -0.2,-11 -0.3,-11 -0.3,-11.1 -0.5,-11 -0.4,-11 -0.6,-11 -0.6,-11 -0.7,-11 -0.8,-11 -0.8,-11 -0.9,-11 -1,-11 -1.1,-11 -1.1,-11 -1.3,-11 -1.3,-11 -1.4,-11 -1.4,-11 -1.6,-11.1 -1.7,-11 -1.7,-11 -1.9,-11 -2,-11 -2,-11 -2.2,-11 -2.3,-11 -2.5,-11 -2.5,-11 -2.7,-11 -2.9,-11 -3,-11 -3.1,-11 -3.4,-11 -3.6,-11 -3.7,-11.1 -4.1,-11 -4.3,-11 -4.6,-11 -4.9,-11 -5.4,-11 -5.9,-11 -6.6,-11 -7.3,-11 -8.5,-11 -10.2,-11 -13.5,-11 -33.3,-11"
           style="fill:#cfff9f;fill-opacity:1;fill-rule:nonzero;stroke:none"
           id="path8002" />
        <path
           d="m 3309.4005,2752.5348 -33.2,11 -13.5,11 -10.3,11 -8.4,11 -7.4,11 -6.5,11 -5.9,11 -5.4,11 -5,11 -4.6,11 -4.3,11 -4,11 -3.8,11.1 -3.5,11 -3.4,11 -3.2,11 -3,11 -2.8,11 -2.7,11 -2.6,11 -2.4,11 -2.3,11 -2.2,11 -2.1,11 -1.9,11 -1.9,11 -1.7,11 -1.7,11 -1.6,11.1 -1.5,11 -1.4,11 -1.3,11 -1.2,11 -1.2,11 -1,11 -1,11 -0.9,11 -0.9,11 -0.7,11 -0.7,11 -0.6,11 -0.6,11 -0.5,11 -0.4,11 -0.3,11.1 -0.3,11 -0.2,11 -0.1,11 -0.1,11 0,11 0.1,11 0.1,11 0.2,11 0.3,11 0.3,11 0.4,11 0.5,11 0.6,11 0.6,11 0.7,11 0.7,11.1 0.9,11 0.9,11 1,11 1,11 1.2,11 1.2,11 1.3,11 1.4,11 1.5,11 1.6,11 1.7,11 1.7,11 1.9,11 1.9,11 2.1,11.1 2.2,11 2.3,11 2.4,11 2.6,11 2.7,11 2.8,11 3,11 3.2,11 3.4,11 3.5,11 3.8,11 4,11 4.3,11 4.6,11 5,11 5.4,11.1 5.9,11 6.5,11 7.4,11 8.4,11 10.3,11 13.5,11 33.2,11 0,0 33.3,-11 13.5,-11 10.2,-11 8.5,-11 7.3,-11 6.6,-11 5.9,-11 5.4,-11.1 4.9,-11 4.6,-11 4.3,-11 4.1,-11 3.7,-11 3.6,-11 3.4,-11 3.1,-11 3,-11 2.9,-11 2.7,-11 2.5,-11 2.5,-11 2.3,-11 2.2,-11 2,-11.1 2,-11 1.9,-11 1.7,-11 1.7,-11 1.6,-11 1.4,-11 1.4,-11 1.3,-11 1.3,-11 1.1,-11 1.1,-11 1,-11 0.9,-11 0.8,-11 0.8,-11.1 0.7,-11 0.6,-11 0.6,-11 0.4,-11 0.5,-11 0.3,-11 0.3,-11 0.2,-11 0.1,-11 0.1,-11 0,-11 -0.1,-11 -0.1,-11 -0.2,-11 -0.3,-11 -0.3,-11.1 -0.5,-11 -0.4,-11 -0.6,-11 -0.6,-11 -0.7,-11 -0.8,-11 -0.8,-11 -0.9,-11 -1,-11 -1.1,-11 -1.1,-11 -1.3,-11 -1.3,-11 -1.4,-11 -1.4,-11 -1.6,-11.1 -1.7,-11 -1.7,-11 -1.9,-11 -2,-11 -2,-11 -2.2,-11 -2.3,-11 -2.5,-11 -2.5,-11 -2.7,-11 -2.9,-11 -3,-11 -3.1,-11 -3.4,-11 -3.6,-11 -3.7,-11.1 -4.1,-11 -4.3,-11 -4.6,-11 -4.9,-11 -5.4,-11 -5.9,-11 -6.6,-11 -7.3,-11 -8.5,-11 -10.2,-11 -13.5,-11 -33.3,-11 0,0"
           style="fill:none;stroke:#000000;stroke-width:7.5;stroke-linecap:round;stroke-linejoin:round;stroke-miterlimit:10;stroke-opacity:1;stroke-dasharray:none"
           id="path8004" />
        <g
           id="g8006"
           transform="matrix(10,0,0,10,-526.39949,97.934789)">
          <text
             transform="matrix(0,1,1,0,389.33,272.821)"
             id="text8008">
            <tspan
               style="font-size:16px;font-variant:normal;font-weight:normal;writing-mode:lr-tb;fill:#000000;fill-opacity:1;fill-rule:nonzero;stroke:none;font-family:Helvetica;-inkscape-font-specification:Helvetica"
               x="0 11.552 23.104 32 41.344002 52.896 64.447998 76 84.896004"
               y="0"
               sodipodi:role="line"
               id="tspan8010">CD4+CCR5+</tspan>
          </text>
        </g>
        <path
           d="m 4870.3005,2466.2348 -33.2,16.8 -13.5,16.8 -10.3,16.8 -8.4,16.8 -7.4,16.8 -6.5,16.7 -5.9,16.8 -5.4,16.8 -5,16.8 -4.6,16.8 -4.3,16.8 -4,16.8 -3.8,16.8 -3.5,16.8 -3.4,16.7 -3.2,16.8 -3,16.8 -2.8,16.8 -2.7,16.8 -2.6,16.8 -2.4,16.8 -2.3,16.8 -2.2,16.8 -2.1,16.8 -1.9,16.7 -1.9,16.8 -1.7,16.8 -1.7,16.8 -1.6,16.8 -1.5,16.8 -1.4,16.8 -1.3,16.8 -1.2,16.8 -1.2,16.7 -1,16.8 -1,16.8 -0.9,16.8 -0.9,16.8 -0.7,16.8 -0.7,16.8 -0.6,16.8 -0.6,16.8 -0.5,16.8 -0.4,16.7 -0.3,16.8 -0.3,16.8 -0.2,16.8 -0.1,16.8 -0.1,16.8 0,16.8 0.1,16.8 0.1,16.8 0.2,16.7 0.3,16.8 0.3,16.8 0.4,16.8 0.5,16.8 0.6,16.8 0.6,16.8 0.7,16.8 0.7,16.8 0.9,16.8 0.9,16.7 1,16.8 1,16.8 1.2,16.8 1.2,16.8 1.3,16.8 1.4,16.8 1.5,16.8 1.6,16.8 1.7,16.7 1.7,16.8 1.9,16.8 1.9,16.8 2.1,16.8 2.2,16.8 2.3,16.8 2.4,16.8 2.6,16.8 2.7,16.7 2.8,16.8 3,16.8 3.2,16.8 3.4,16.8 3.5,16.8 3.8,16.8 4,16.8 4.3,16.8 4.6,16.8 5,16.7 5.4,16.8 5.9,16.8 6.5,16.8 7.4,16.8 8.4,16.8 10.3,16.8 13.5,16.8 33.2,16.8 0,0 33.3,-16.8 13.5,-16.8 10.2,-16.8 8.5,-16.8 7.3,-16.8 6.6,-16.8 5.9,-16.8 5.4,-16.8 4.9,-16.7 4.6,-16.8 4.3,-16.8 4.1,-16.8 3.7,-16.8 3.6,-16.8 3.4,-16.8 3.1,-16.8 3,-16.8 2.9,-16.8 2.7,-16.7 2.5,-16.8 2.5,-16.8 2.3,-16.8 2.2,-16.8 2,-16.8 2,-16.8 1.9,-16.8 1.7,-16.8 1.7,-16.7 1.6,-16.8 1.4,-16.8 1.4,-16.8 1.3,-16.8 1.3,-16.8 1.1,-16.8 1.1,-16.8 1,-16.8 0.9,-16.7 0.8,-16.8 0.8,-16.8 0.7,-16.8 0.6,-16.8 0.6,-16.8 0.4,-16.8 0.5,-16.8 0.3,-16.8 0.3,-16.8 0.2,-16.7 0.1,-16.8 0.1,-16.8 0,-16.8 -0.1,-16.8 -0.1,-16.8 -0.2,-16.8 -0.3,-16.8 -0.3,-16.8 -0.5,-16.7 -0.4,-16.8 -0.6,-16.8 -0.6,-16.8 -0.7,-16.8 -0.8,-16.8 -0.8,-16.8 -0.9,-16.8 -1,-16.8 -1.1,-16.8 -1.1,-16.7 -1.3,-16.8 -1.3,-16.8 -1.4,-16.8 -1.4,-16.8 -1.6,-16.8 -1.7,-16.8 -1.7,-16.8 -1.9,-16.8 -2,-16.7 -2,-16.8 -2.2,-16.8 -2.3,-16.8 -2.5,-16.8 -2.5,-16.8 -2.7,-16.8 -2.9,-16.8 -3,-16.8 -3.1,-16.8 -3.4,-16.7 -3.6,-16.8 -3.7,-16.8 -4.1,-16.8 -4.3,-16.8 -4.6,-16.8 -4.9,-16.8 -5.4,-16.8 -5.9,-16.8 -6.6,-16.7 -7.3,-16.8 -8.5,-16.8 -10.2,-16.8 -13.5,-16.8 -33.3,-16.8"
           style="fill:#edff37;fill-opacity:1;fill-rule:nonzero;stroke:none"
           id="path8012" />
        <path
           d="m 4870.3005,2466.2348 -33.2,16.8 -13.5,16.8 -10.3,16.8 -8.4,16.8 -7.4,16.8 -6.5,16.7 -5.9,16.8 -5.4,16.8 -5,16.8 -4.6,16.8 -4.3,16.8 -4,16.8 -3.8,16.8 -3.5,16.8 -3.4,16.7 -3.2,16.8 -3,16.8 -2.8,16.8 -2.7,16.8 -2.6,16.8 -2.4,16.8 -2.3,16.8 -2.2,16.8 -2.1,16.8 -1.9,16.7 -1.9,16.8 -1.7,16.8 -1.7,16.8 -1.6,16.8 -1.5,16.8 -1.4,16.8 -1.3,16.8 -1.2,16.8 -1.2,16.7 -1,16.8 -1,16.8 -0.9,16.8 -0.9,16.8 -0.7,16.8 -0.7,16.8 -0.6,16.8 -0.6,16.8 -0.5,16.8 -0.4,16.7 -0.3,16.8 -0.3,16.8 -0.2,16.8 -0.1,16.8 -0.1,16.8 0,16.8 0.1,16.8 0.1,16.8 0.2,16.7 0.3,16.8 0.3,16.8 0.4,16.8 0.5,16.8 0.6,16.8 0.6,16.8 0.7,16.8 0.7,16.8 0.9,16.8 0.9,16.7 1,16.8 1,16.8 1.2,16.8 1.2,16.8 1.3,16.8 1.4,16.8 1.5,16.8 1.6,16.8 1.7,16.7 1.7,16.8 1.9,16.8 1.9,16.8 2.1,16.8 2.2,16.8 2.3,16.8 2.4,16.8 2.6,16.8 2.7,16.7 2.8,16.8 3,16.8 3.2,16.8 3.4,16.8 3.5,16.8 3.8,16.8 4,16.8 4.3,16.8 4.6,16.8 5,16.7 5.4,16.8 5.9,16.8 6.5,16.8 7.4,16.8 8.4,16.8 10.3,16.8 13.5,16.8 33.2,16.8 0,0 33.3,-16.8 13.5,-16.8 10.2,-16.8 8.5,-16.8 7.3,-16.8 6.6,-16.8 5.9,-16.8 5.4,-16.8 4.9,-16.7 4.6,-16.8 4.3,-16.8 4.1,-16.8 3.7,-16.8 3.6,-16.8 3.4,-16.8 3.1,-16.8 3,-16.8 2.9,-16.8 2.7,-16.7 2.5,-16.8 2.5,-16.8 2.3,-16.8 2.2,-16.8 2,-16.8 2,-16.8 1.9,-16.8 1.7,-16.8 1.7,-16.7 1.6,-16.8 1.4,-16.8 1.4,-16.8 1.3,-16.8 1.3,-16.8 1.1,-16.8 1.1,-16.8 1,-16.8 0.9,-16.7 0.8,-16.8 0.8,-16.8 0.7,-16.8 0.6,-16.8 0.6,-16.8 0.4,-16.8 0.5,-16.8 0.3,-16.8 0.3,-16.8 0.2,-16.7 0.1,-16.8 0.1,-16.8 0,-16.8 -0.1,-16.8 -0.1,-16.8 -0.2,-16.8 -0.3,-16.8 -0.3,-16.8 -0.5,-16.7 -0.4,-16.8 -0.6,-16.8 -0.6,-16.8 -0.7,-16.8 -0.8,-16.8 -0.8,-16.8 -0.9,-16.8 -1,-16.8 -1.1,-16.8 -1.1,-16.7 -1.3,-16.8 -1.3,-16.8 -1.4,-16.8 -1.4,-16.8 -1.6,-16.8 -1.7,-16.8 -1.7,-16.8 -1.9,-16.8 -2,-16.7 -2,-16.8 -2.2,-16.8 -2.3,-16.8 -2.5,-16.8 -2.5,-16.8 -2.7,-16.8 -2.9,-16.8 -3,-16.8 -3.1,-16.8 -3.4,-16.7 -3.6,-16.8 -3.7,-16.8 -4.1,-16.8 -4.3,-16.8 -4.6,-16.8 -4.9,-16.8 -5.4,-16.8 -5.9,-16.8 -6.6,-16.7 -7.3,-16.8 -8.5,-16.8 -10.2,-16.8 -13.5,-16.8 -33.3,-16.8 0,0"
           style="fill:none;stroke:#000000;stroke-width:7.5;stroke-linecap:round;stroke-linejoin:round;stroke-miterlimit:10;stroke-opacity:1;stroke-dasharray:none"
           id="path8014" />
        <g
           id="g8016"
           transform="matrix(10,0,0,10,-526.39949,97.934789)">
          <text
             transform="matrix(0,1,1,0,545.42,243.253)"
             id="text8018">
            <tspan
               style="font-size:16px;font-variant:normal;font-weight:normal;writing-mode:lr-tb;fill:#000000;fill-opacity:1;fill-rule:nonzero;stroke:none;font-family:Helvetica;-inkscape-font-specification:Helvetica"
               x="0 11.552 23.104 32 41.344002 52.896 64.447998 76 84.896004 94.239998 105.792 117.344 126.24 135.136 144.032"
               y="0"
               sodipodi:role="line"
               id="tspan8020">CD4+CCR5+CD127+</tspan>
          </text>
        </g>
        <path
           d="m 1933.3005,3297.3348 1117.5,0"
           style="fill:none;stroke:#bebebe;stroke-width:37.5;stroke-linecap:round;stroke-linejoin:round;stroke-miterlimit:10;stroke-opacity:1;stroke-dasharray:none"
           id="path8034" />
        <path
           d="m 2948.0005,3297.3348 102.8,0"
           style="fill:none;stroke:#bebebe;stroke-width:37.5;stroke-linecap:round;stroke-linejoin:round;stroke-miterlimit:10;stroke-opacity:1;stroke-dasharray:none"
           id="path8036" />
        <path
           d="m 2959.2005,3244.4348 91.6,52.9 -91.6,52.9"
           style="fill:none;stroke:#bebebe;stroke-width:37.5;stroke-linecap:round;stroke-linejoin:round;stroke-miterlimit:10;stroke-opacity:1;stroke-dasharray:none"
           id="path8038" />
        <g
           id="g8040"
           transform="matrix(10,0,0,10,-552.64821,373.5463)">
          <text
             transform="matrix(0,1,1,0,311.74,298.164)"
             id="text8042">
            <tspan
               style="font-size:16px;font-variant:normal;font-weight:normal;writing-mode:lr-tb;fill:#000000;fill-opacity:1;fill-rule:nonzero;stroke:none;font-family:Helvetica;-inkscape-font-specification:Helvetica"
               x="0 11.552 23.104 34.655998"
               y="0"
               sodipodi:role="line"
               id="tspan8044">CCR5</tspan>
          </text>
        </g>
        <path
           d="m 3484.9005,3297.3348 1126.8,0"
           style="fill:none;stroke:#bebebe;stroke-width:37.5;stroke-linecap:round;stroke-linejoin:round;stroke-miterlimit:10;stroke-opacity:1;stroke-dasharray:none"
           id="path8046" />
        <path
           d="m 4508.9005,3297.3348 102.8,0"
           style="fill:none;stroke:#bebebe;stroke-width:37.5;stroke-linecap:round;stroke-linejoin:round;stroke-miterlimit:10;stroke-opacity:1;stroke-dasharray:none"
           id="path8048" />
        <path
           d="m 4520.1005,3244.4348 91.6,52.9 -91.6,52.9"
           style="fill:none;stroke:#bebebe;stroke-width:37.5;stroke-linecap:round;stroke-linejoin:round;stroke-miterlimit:10;stroke-opacity:1;stroke-dasharray:none"
           id="path8050" />
        <g
           id="g8052"
           transform="matrix(10,0,0,10,-526.39949,97.934789)">
          <text
             transform="matrix(0,1,1,0,0,0)"
             id="text8054"
             x="325.88724"
             y="465.20514">
            <tspan
               style="font-size:16px;font-variant:normal;font-weight:normal;writing-mode:lr-tb;fill:#000000;fill-opacity:1;fill-rule:nonzero;stroke:none;font-family:Helvetica;-inkscape-font-specification:Helvetica"
               x="325.88724 337.43924 348.99124 357.88724 366.78323"
               y="465.20514"
               sodipodi:role="line"
               id="tspan8056">CD127</tspan>
          </text>
          <path
             style="fill:#ff1964;fill-opacity:1;stroke:none"
             d="m 308.59746,145.57538 c -5.56139,-1.56185 -6.6045,-2.13141 -6.83973,-3.7346 -0.26159,-1.78298 -0.0731,-1.86574 3.28109,-1.44013 3.53757,0.44887 3.27754,0.17325 -43.91149,-46.544662 -28.28371,-28.001337 -47.3196,-47.448279 -47.09769,-48.114693 1.19008,-3.573918 3.9463,-1.09499 50.42139,45.348859 45.49462,45.464026 47.05766,46.930116 46.54788,43.660576 -0.56934,-3.65149 0.52075,-5.24857 2.47525,-3.62648 1.37018,1.13715 4.84495,13.68747 4.23191,15.28501 -0.56066,1.46107 -1.11871,1.40998 -9.10861,-0.83388 l 0,0 z"
             id="path14726"
             transform="matrix(0,0.8,0.8,0,92.728965,65.717683)" />
          <path
             style="fill:#ff1964;fill-opacity:1;stroke:none"
             d="m 308.18732,145.63779 c -5.20859,-1.53058 -6.1946,-2.10539 -6.42958,-3.74825 -0.29943,-2.09339 -0.40895,-2.08853 8.649,-0.3838 l 2.62955,0.49489 -1.29708,-4.55955 c -1.35712,-4.77063 -1.09395,-7.0998 0.8022,-7.0998 1.42916,0 2.41264,2.19551 4.33459,9.67648 1.34751,5.24505 1.38718,6.08041 0.32079,6.75468 -1.59376,1.00774 -1.81266,0.98017 -9.00947,-1.13465 z"
             id="path14728"
             transform="matrix(0,0.8,0.8,0,92.728965,65.717683)" />
          <path
             style="fill:#ff1964;fill-opacity:1;stroke:none"
             d="m 315.41597,147.00666 c 0.59214,-0.23696 1.29962,-0.20781 1.57219,0.0648 0.27257,0.27257 -0.2119,0.46644 -1.0766,0.43082 -0.95557,-0.0394 -1.14994,-0.23373 -0.49559,-0.49558 z"
             id="path14730"
             transform="matrix(0,0.8,0.8,0,92.728965,65.717683)" />
          <path
             style="fill:#ff1964;fill-opacity:1;stroke:none"
             d="m 312.89154,146.86227 c -1.43804,-0.39036 -3.399,-0.91307 -4.35769,-1.16157 -4.23891,-1.09876 -5.99771,-1.58352 -6.34743,-1.74947 -0.20643,-0.0979 -0.52789,-0.35633 -0.71435,-0.57417 -1.20517,-1.40798 -0.36122,-3.53504 1.48081,-3.73216 0.45701,-0.0489 0.85999,0.0213 2.24861,0.39181 5.22133,1.39312 7.38663,1.94739 7.43167,1.90234 0.0278,-0.0278 -0.50254,-2.07272 -1.1785,-4.54432 -0.67595,-2.4716 -1.22855,-4.68313 -1.228,-4.9145 0.001,-0.56385 0.41022,-1.41073 0.83387,-1.72711 0.56365,-0.42094 0.782,-0.49849 1.4121,-0.5015 1.01179,-0.005 1.84576,0.56365 2.20099,1.50034 0.26498,0.69869 3.65223,13.26554 3.65223,13.54991 0,0.86609 -0.80219,1.95803 -1.60151,2.17997 -0.67527,0.1875 -1.13117,0.1138 -3.8328,-0.61957 l 0,0 z"
             id="path14732"
             transform="matrix(0,0.8,0.8,0,92.728965,65.717683)" />
          <path
             style="fill:#ff1964;fill-opacity:1;stroke:none"
             d="m 315.19856,147.48304 c -0.28944,-0.0914 -4.67247,-1.25172 -10.09961,-2.67359 -2.74833,-0.72005 -3.15435,-0.88035 -3.62629,-1.43171 -0.85236,-0.99578 -0.74777,-2.34642 0.24768,-3.19849 0.80336,-0.68765 1.3508,-0.7286 3.17355,-0.23741 4.95328,1.3348 7.69409,2.04239 7.73861,1.99787 0.0285,-0.0285 -0.36583,-1.57113 -0.87634,-3.428 -1.41213,-5.13624 -1.52932,-5.59977 -1.5276,-6.04201 0.002,-0.46349 0.30909,-1.214 0.6443,-1.57363 0.91471,-0.98134 2.70311,-0.84256 3.49452,0.27117 0.32261,0.45401 0.454,0.90093 2.67513,9.09894 l 1.27894,4.72046 -0.10534,0.66258 c -0.12605,0.79279 -0.45392,1.25839 -1.15832,1.64488 -0.52074,0.28572 -1.30161,0.36508 -1.85923,0.18894 l 0,0 z"
             id="path14734"
             transform="matrix(0,0.8,0.8,0,92.728965,65.717683)" />
          <path
             style="fill:#ff1964;fill-opacity:1;stroke:none"
             d="m 315.2195,147.4827 c -0.0679,-0.0343 -2.7304,-0.74462 -5.91665,-1.57844 -7.55853,-1.97803 -7.11768,-1.84608 -7.58826,-2.27122 -1.51732,-1.37081 -0.77475,-3.76433 1.23829,-3.99135 0.49131,-0.0554 1.009,0.058 4.40182,0.96455 4.68839,1.25268 5.22396,1.38732 5.28315,1.32812 0.0395,-0.0395 -0.5112,-2.09211 -2.11283,-7.87539 -0.36859,-1.33092 -0.38046,-1.89819 -0.0532,-2.54112 0.67001,-1.31623 2.2455,-1.69966 3.43707,-0.83649 0.53474,0.38737 0.7283,0.78494 1.17013,2.40357 2.35778,8.63746 3.17967,11.73805 3.17996,11.99645 10e-4,1.11508 -0.38644,1.81139 -1.25084,2.24631 -0.46466,0.23378 -1.4618,0.3202 -1.78866,0.15501 l 0,0 z"
             id="path14736"
             transform="matrix(0,0.8,0.8,0,92.728965,65.717683)" />
          <path
             style="fill:#ff1964;fill-opacity:1;stroke:none"
             d="m 315.55743,147.52405 c -0.5019,-0.0921 -12.77318,-3.32792 -13.19317,-3.47887 -0.24032,-0.0864 -0.60749,-0.34879 -0.83812,-0.599 -0.64079,-0.69517 -0.80252,-1.59867 -0.43533,-2.43202 0.372,-0.8443 0.95259,-1.27026 1.87173,-1.37325 0.48043,-0.0538 1.06591,0.0772 4.8023,1.07475 5.07573,1.35514 4.96313,1.33043 4.8873,1.07251 -0.0312,-0.10612 -0.50079,-1.83093 -1.04354,-3.8329 -0.54274,-2.00198 -1.07594,-3.9332 -1.18488,-4.2916 -0.34312,-1.12888 -0.23064,-1.9531 0.3628,-2.65836 0.42257,-0.5022 1.03764,-0.77259 1.74615,-0.76763 1.22659,0.009 2.06966,0.81788 2.4034,2.30708 0.0567,0.25291 0.8231,3.08484 1.70317,6.29316 0.88007,3.20833 1.60524,5.99482 1.61149,6.1922 0.0256,0.80626 -0.12959,1.31583 -0.52635,1.72878 -0.63707,0.66306 -1.35062,0.91502 -2.16695,0.76515 l 0,0 z"
             id="path14738"
             transform="matrix(0,0.8,0.8,0,92.728965,65.717683)" />
          <path
             style="fill:#ff1964;fill-opacity:1;stroke:none"
             d="m 315.55743,147.52357 c -0.29996,-0.054 -12.10597,-3.14026 -12.88044,-3.36713 -1.39247,-0.40789 -2.14155,-1.89735 -1.57804,-3.13775 0.28014,-0.61665 0.49424,-0.85745 0.98718,-1.11028 0.88229,-0.45254 1.03015,-0.43092 5.88014,0.85973 4.07345,1.08399 4.7202,1.24259 4.7202,1.15749 0,-0.0157 -0.55647,-2.05737 -1.23659,-4.53713 -1.06829,-3.89501 -1.23013,-4.58542 -1.18905,-5.0726 0.0755,-0.89577 0.37901,-1.34509 1.24022,-1.83627 0.53233,-0.30361 1.48631,-0.32111 2.01943,-0.037 0.56137,0.29911 1.16068,1.07883 1.28226,1.66825 0.0174,0.0846 0.79774,2.94529 1.73399,6.35711 0.93624,3.41182 1.70747,6.3648 1.71382,6.56218 0.0259,0.80464 -0.12941,1.31583 -0.52486,1.72741 -0.63027,0.65599 -1.35581,0.91232 -2.16826,0.76604 z"
             id="path14740"
             transform="matrix(0,0.8,0.8,0,92.728965,65.717683)" />
          <path
             style="fill:#ff1964;fill-opacity:1;stroke:none"
             d="m 315.45489,220.13838 c 0,-26.83589 0.0121,-28.89199 0.17299,-29.2991 0.40486,-1.02472 1.13201,-1.55401 2.13093,-1.55111 0.99726,0.003 1.67864,0.44804 2.09643,1.3696 0.20895,0.46089 0.20918,0.49329 0.21143,29.40163 l 0.002,28.94024 -2.30702,0 -2.30702,0 0,-28.86126 z"
             id="path14742"
             transform="matrix(0,0.8,0.8,0,92.728965,65.717683)" />
          <path
             style="fill:#ff1964;fill-opacity:1;stroke:none"
             d="m 312.84727,327.04045 c -1.91739,-3.37747 -3.48616,-6.68467 -3.48616,-7.34932 0,-2.27832 1.88833,-2.41277 3.73496,-0.26593 l 1.82572,2.12252 0.50075,-2.50375 c 0.27541,-1.37706 0.50075,-17.59163 0.50075,-36.03238 l 0,-33.52863 2.05068,0 2.05068,0 0.003,36.70719 0.003,36.70719 1.62542,-2.66589 c 1.80419,-2.95909 2.60868,-3.24487 4.09454,-1.45453 0.8213,0.98961 0.33218,2.37853 -2.67201,7.58752 -2.25616,3.91198 -4.27017,6.46133 -5.21132,6.59651 -1.14444,0.1644 -2.41908,-1.33884 -5.02008,-5.9205 z"
             id="path14744"
             transform="matrix(0,0.8,0.8,0,92.728965,65.717683)" />
          <path
             style="fill:#ff1964;fill-opacity:1;stroke:none"
             d="m 312.84727,522.21588 c -1.91739,-3.35885 -3.48616,-6.64732 -3.48616,-7.3077 0,-2.82188 3.64683,-2.32996 4.62499,0.62387 0.57363,1.73223 0.5987,1.72626 1.17987,-0.28085 0.32658,-1.12787 0.63058,-31.09729 0.67555,-66.59872 0.0556,-43.86785 0.35608,-64.71757 0.93797,-65.0772 0.47091,-0.29104 1.39372,-0.0831 2.05068,0.46217 1.02778,0.85298 1.19491,10.27841 1.19754,67.53802 l 0.003,66.54669 1.62542,-2.66589 c 1.74596,-2.86359 3.63234,-3.45417 4.42608,-1.38573 0.69434,1.80943 -6.64795,14.31223 -8.38517,14.27869 -0.82377,-0.0159 -2.74383,-2.4441 -4.84981,-6.13335 z"
             id="path14746"
             transform="matrix(0,0.8,0.8,0,92.728965,65.717683)" />
        </g>
      </g>
    </g>
    <g
       id="g8068">
      <g
         id="g8070"
         clip-path="url(#clipPath8072)" />
    </g>
    <g
       id="g13104">
      <g
         id="g13106"
         clip-path="url(#clipPath13108)" />
    </g>
    <g
       id="g8028"
       transform="matrix(10,0,0,10,-409.71732,-120.09896)">
      <text
         transform="matrix(0,1,1,0,155.65,303.94)"
         id="text8030">
        <tspan
           style="font-size:16px;font-variant:normal;font-weight:normal;writing-mode:lr-tb;fill:#000000;fill-opacity:1;fill-rule:nonzero;stroke:none;font-family:Helvetica;-inkscape-font-specification:Helvetica"
           x="0 11.552 23.104"
           y="0"
           sodipodi:role="line"
           id="tspan8032">CD4</tspan>
      </text>
    </g>
  </g>
  <path
     style="fill:#1900ff;fill-opacity:1;stroke:none"
     d="m 154.00725,129.17962 0,-3.24631 9.4269,-9.47086 c 5.1848,-5.20897 15.937,-16.02269 23.8937,-24.030481 10.698,-10.76662 14.6081,-14.58704 15.009,-14.66479 0.7628,-0.14795 1.452,0.0223 2.0632,0.50967 0.6384,0.50904 0.8749,1.87269 0.4611,2.65895 -0.1434,0.2724 -9.7692,10.07677 -21.3908,21.787451 -18.61,18.75272 -21.2327,21.32618 -21.9897,21.57741 -1.2002,0.39827 -2.2334,1.4354 -2.5283,2.53782 -0.2029,0.75861 -0.591,1.24377 -2.5919,3.23984 l -2.3532,2.34762 0,-3.24632 z"
     id="path14688" />
  <path
     style="fill:#1900ff;fill-opacity:1;stroke:none"
     d="m 103.33235,182.10553 c -0.9847,-0.1537 -1.9268,-1.18423 -1.9268,-2.10768 0,-0.30877 2.4281,-9.6961 3.3597,-12.98871 0.4866,-1.71976 1.7824,-2.48989 3.1958,-1.89934 0.7847,0.32788 1.2874,1.14011 1.2858,2.07731 -6e-4,0.34713 -0.2565,1.57317 -0.5686,2.72451 -0.3121,1.15135 -0.542,2.11887 -0.5108,2.15006 0.031,0.0312 7.7971,-7.74678 17.2577,-17.28437 10.5574,-10.64342 17.5928,-17.59206 18.2156,-17.99091 0.6316,-0.40458 1.2556,-1.02411 1.6532,-1.64153 0.6612,-1.02662 6.3179,-7.01696 6.6261,-7.01696 0.098,0 0.173,1.36299 0.1713,3.10828 l 0,3.10828 -20.2861,20.43731 c -11.1574,11.24052 -20.2537,20.46976 -20.214,20.50943 0.04,0.0397 1.0141,-0.18326 2.1655,-0.49537 2.801,-0.75932 3.3878,-0.7481 4.2165,0.0806 0.5299,0.52992 0.6504,0.79683 0.6504,1.44133 0,0.92206 -0.4124,1.64061 -1.165,2.02979 -0.2939,0.15199 -3.2293,1.01173 -6.5229,1.91055 -7.4377,2.02969 -7.0447,1.93415 -7.6004,1.84741 l 0,0 z"
     id="path14700" />
  <path
     style="fill:#1900ff;fill-opacity:1;stroke:none"
     d="m 100.02335,260.06016 c 0,-18.72195 0.1478,-34.42501 0.3284,-34.89569 0.46,-1.1987 2.7645,-1.07094 3.4397,0.19069 0.3689,0.68937 0.56,12.59718 0.56,34.89569 l 0,33.84922 -2.164,0 -2.1641,0 0,-34.03991 z"
     id="path14702" />
  <path
     style="fill:#1900ff;fill-opacity:1;stroke:none"
     d="m 100.49335,367.29662 c -1.611697,-1.90093 -6.962197,-11.88041 -6.962197,-12.9854 0,-1.24203 1.2774,-1.96378 2.685,-1.51704 0.5002,0.15877 1.5006,1.32072 2.2231,2.58211 l 1.3136,2.29344 0.1407,-24.7516 0.140697,-24.75159 2.1586,0 2.1586,0 0,24.72226 0,24.72226 1.6341,-2.57669 c 1.2364,-1.94951 1.9143,-2.53496 2.7851,-2.40525 2.6396,0.39316 2.4258,1.61445 -1.5101,8.62316 -3.9218,6.98377 -5.0878,8.02524 -6.7672,6.04434 l 0,0 z"
     id="path14704" />
  <path
     style="fill:#1900ff;fill-opacity:1;stroke:none"
     d="m 100.56435,301.43809 0,-5.17395 1.9139,0 1.9139,0 -0.1556,5.00442 -0.1556,5.00442 -1.7583,0.16953 -1.7583,0.16953 0,-5.17395 z"
     id="path14706" />
  <path
     style="fill:#1900ff;fill-opacity:1;stroke:none"
     d="m 100.97105,562.82999 c -0.4537,-0.36042 -2.328397,-3.28594 -4.166097,-6.50116 -3.7248,-6.51698 -4.0111,-8.22063 -1.3813,-8.22063 1.3207,0 1.8232,0.37655 2.7051,2.02736 0.5957,1.11504 1.2657,2.02801 1.4888,2.02882 0.2232,5.4e-4 0.405797,-10.94163 0.405797,-24.3165 l 0,-24.31795 1.3525,-1.45942 c 1.654,-1.78463 1.826,-4.00651 0.3102,-4.00651 -0.5733,0 -1.1537,0.42605 -1.2898,0.94678 -0.136,0.52073 -0.2564,-0.6357 -0.2674,-2.56984 -0.011,-1.93414 0.1027,-3.21229 0.2528,-2.84034 0.3298,0.81734 2.3468,0.9105 2.3468,0.10838 0,-0.9628 -1.6203,-3.76026 -2.178,-3.76026 -0.747797,0 -0.715497,-69.51039 0.033,-70.90897 0.3081,-0.57556 0.8869,-1.04647 1.2863,-1.04647 2.2486,0 2.1984,-1.3781 2.4818,68.11612 l 0.2705,66.32695 1.2283,-2.29933 c 0.6756,-1.26463 1.5277,-2.32818 1.8936,-2.36343 2.2266,-0.21454 3.2815,0.74691 2.7417,2.49868 -0.6399,2.07658 -6.822,12.21345 -7.7521,12.71123 -0.62,0.33185 -1.217,0.27986 -1.7625,-0.15351 l 0,0 z"
     id="path14708" />
  <g
     id="g94"
     transform="matrix(0,1.25,1.25,0,-297.88125,-81.186287)">
    <text
       transform="matrix(0,1,1,0,0,0)"
       id="text96"
       x="272.25766"
       y="465.74875">
      <tspan
         style="font-size:15px;font-variant:normal;font-weight:normal;writing-mode:lr-tb;fill:#000000;fill-opacity:1;fill-rule:nonzero;stroke:none;font-family:Helvetica;-inkscape-font-specification:Helvetica"
         x="272.25766 283.08768 293.91766 304.74768"
         y="465.74875"
         sodipodi:role="line"
         id="tspan98">CCR5</tspan>
    </text>
    <path
       style="fill:#1900ff;fill-opacity:1;stroke:none"
       d="m 99.821349,447.09053 c -0.02,-37.35179 0.0161,-62.43988 0.09014,-62.63461 0.154601,-0.40663 1.001171,-1.31581 1.225201,-1.31581 0.0919,0 -0.0149,0.20736 -0.23747,0.46079 -0.35049,0.39919 -0.4163,0.60262 -0.49221,1.52162 -0.530324,6.42018 -0.59956,60.11385 -0.0878,68.07947 l 0.10862,1.69068 0.54752,0.56823 c 0.64248,0.66678 1.65296,2.60482 1.65296,3.17029 0,0.30016 -0.0841,0.42543 -0.35482,0.52835 -0.45697,0.17374 -1.17722,0.0366 -1.61467,-0.30755 -0.18924,-0.14886 -0.38652,-0.22817 -0.4384,-0.17625 -0.13886,0.13898 -0.11399,5.30566 0.0262,5.43732 0.0657,0.0617 0.15051,0.0243 0.18851,-0.083 0.28016,-0.7915 1.55748,-1.12562 1.98265,-0.5186 0.57982,0.8278 -0.0176,2.39691 -1.54271,4.05208 l -0.950951,1.03203 -0.03469,20.40236 c -0.01908,11.2213 -0.04971,-7.63702 -0.06807,-41.90738 z"
       id="path14716"
       transform="matrix(0,0.8,0.8,0,92.919178,238.305)" />
    <path
       style="fill:#1900ff;fill-opacity:1;stroke:none"
       d="m 104.21869,415.93935 c -0.14854,-25.23261 -0.35812,-30.93306 -1.18974,-32.35966 -0.17104,-0.29341 -0.20155,-0.43858 -0.0917,-0.43657 0.26309,0.005 0.70409,0.42721 1.05595,1.0114 l 0.32585,0.54102 0.0358,19.34141 c 0.0197,10.63777 0.0197,21.50209 0,24.14294 -0.0197,2.64085 -0.081,-2.8674 -0.13613,-12.24054 z"
       id="path14718"
       transform="matrix(0,0.8,0.8,0,92.919178,238.305)" />
    <path
       style="fill:#1900ff;fill-opacity:1;stroke:none"
       d="m 99.854448,242.71685 c 0.0011,-50.68897 0.0089,-52.31235 0.251052,-52.54641 0.24205,-0.23393 0.24757,-0.22238 0.17564,0.36712 -0.13194,1.08126 -0.366861,40.21781 -0.327997,54.64286 l 0.03772,13.99885 2.197897,0.0372 2.19787,0.0372 0,1.01106 0,1.01106 -1.96119,0 -1.96119,0 0,5.22592 0,5.22593 0.71009,-0.0819 c 0.39054,-0.045 1.21222,-0.12301 1.82593,-0.17332 l 1.11585,-0.0915 0.0176,-0.48776 c 0.01,-0.26827 0.0595,-1.64418 0.11072,-3.05759 l 0.0931,-2.56984 0.0245,3.9562 0.0245,3.95619 -2.2309,0 -2.230894,0 -0.03577,10.92181 c -0.01967,6.007 -0.03525,-12.61539 -0.03461,-41.38308 z"
       id="path14720"
       transform="matrix(0,0.8,0.8,0,92.919178,238.305)" />
    <path
       style="fill:#1900ff;fill-opacity:1;stroke:none"
       d="m 152.06806,96.134058 -0.0846,-3.159618 1.01441,-0.989513 1.01441,-0.989512 0,3.247944 0,3.247945 -0.92979,0.901186 -0.92979,0.901186 -0.0846,-3.159618 z"
       id="path14722"
       transform="matrix(0,0.8,0.8,0,92.919178,238.305)" />
    <path
       style="fill:#ff1964;fill-opacity:1;stroke:none"
       d="m 158.73994,92.587677 c 0,-0.05285 0.14544,-0.424977 0.32322,-0.826947 0.4319,-0.976607 1.1222,-1.712586 2.04348,-2.178715 0.41761,-0.211288 1.06257,-0.656844 1.43326,-0.990125 0.37069,-0.33328 0.69984,-0.580105 0.73144,-0.5485 0.0316,0.03161 -0.97503,1.08862 -2.23697,2.348922 -1.26194,1.260302 -2.29443,2.248216 -2.29443,2.195365 z"
       id="path14724"
       transform="matrix(0,0.8,0.8,0,92.919178,238.305)" />
  </g>
  <path
     style="color:#000000;fill:#ff1964;fill-opacity:1;fill-rule:nonzero;stroke:none;stroke-width:1.25;marker:none;visibility:visible;display:inline;overflow:visible;enable-background:accumulate"
     d="m 315.92515,297.21536 0,-12.75324 2.0405,0 2.0405,0 0,12.75324 0,12.75325 -2.0405,0 -2.0405,0 0,-12.75325 z"
     id="path3822" />
  <path
     style="fill:#ff1964;fill-opacity:1;stroke:none"
     d="m 315.43715,296.97139 0,-12.99722 2.3289,0 2.3288,0 -0.011,13.00831 -0.011,13.00831 -0.011,-12.78652 -0.011,-12.78651 -2.0848,0 -2.0848,0 0,12.77542 0,12.77543 -0.2218,0 -0.2218,0 0,-12.99722 z"
     id="path3826" />
  <path
     style="fill:#ff1964;fill-opacity:1;stroke:none"
     d="m 315.88385,287.23745 0,-2.8168 2.0821,0 2.0821,0 0,1.2074 c 0,0.66407 0,1.93163 0,2.8168 l 0,1.6094 -0.015,0 -0.015,0 0,-2.80571 0,-2.80571 -2.0516,0 -2.0516,0 0,2.80571 0,2.80571 -0.019,0 -0.019,0 0,-2.8168 z"
     id="path3828" />
  <path
     style="fill:#ff1964;fill-opacity:1;stroke:none"
     d="m 315.88335,295.99627 0,-2.27149 0.019,0 0.019,0 0,2.27149 0,2.27148 -0.019,0 -0.019,0 0,-2.27148 z"
     id="path3830" />
  <path
     style="fill:#ff1964;fill-opacity:1;stroke:none"
     d="m 315.88245,291.88727 c 0,-1.618 0,-1.82853 0.017,-1.82853 0.015,0 0.017,0.21053 0.017,1.82853 0,1.618 0,1.82854 -0.017,1.82854 -0.015,0 -0.017,-0.21054 -0.017,-1.82854 z"
     id="path3832" />
  <path
     style="fill:#ff1964;fill-opacity:1;stroke:none"
     d="m 315.88245,300.12396 c 0,-1.64255 0,-1.85615 0.017,-1.85615 0.015,0 0.017,0.2136 0.017,1.85615 0,1.64255 0,1.85616 -0.017,1.85616 -0.015,0 -0.017,-0.21361 -0.017,-1.85616 z"
     id="path3834" />
  <path
     style="fill:#ff1964;fill-opacity:1;stroke:none"
     d="m 320.08545,297.11498 c 0.001,-0.7525 0,-1.77466 0,-2.27149 l 0,-0.90332 0.016,0 0.016,0 0,2.27148 0,2.27149 -0.018,0 -0.018,0 0,-1.36816 z"
     id="path3836" />
  <path
     style="fill:#ff1964;fill-opacity:1;stroke:none"
     d="m 320.02815,297.0388 c 0,-0.79438 0,-1.81655 0,-2.27148 l 0,-0.82715 0.015,0 0.015,0 0,1.58854 c 0,0.8737 0,1.89587 0,2.27149 l 0,0.68294 -0.015,0 -0.015,0 0,-1.44434 z"
     id="path3838" />
  <path
     style="fill:#ff1964;fill-opacity:1;stroke:none"
     d="m 315.46455,331.2546 -0.014,-21.2353 0.2356,0 0.2356,0 -0.058,13.58971 c -0.055,13.07487 -0.1767,23.39222 -0.319,27.11312 -0.037,0.97227 -0.074,-7.78812 -0.081,-19.46753 z"
     id="path3840" />
  <path
     style="fill:#ff1964;fill-opacity:1;stroke:none"
     d="m 323.75945,360.28102 c 0,-0.0366 0.2611,-0.54139 0.5803,-1.12168 0.8412,-1.5295 1.5037,-2.96146 1.6748,-3.62004 0.2178,-0.838 0.138,-1.31899 -0.3164,-1.90796 -0.6804,-0.88199 -1.4655,-1.21238 -2.1005,-0.884 -0.3181,0.16447 -0.9692,0.86669 -1.3866,1.49528 -0.184,0.27712 -0.352,0.48636 -0.3734,0.46499 -0.073,-0.0732 0.6229,-1.22223 0.9212,-1.52058 0.7284,-0.72841 1.7638,-0.90528 2.6464,-0.45207 0.7663,0.39352 1.1609,0.98474 1.2391,1.85665 0.063,0.70337 0.018,0.80691 -1.5204,3.48282 -1.1686,2.03267 -1.3645,2.34942 -1.3645,2.20659 z"
     id="path3842" />
  <path
     style="fill:#ff1964;fill-opacity:1;stroke:none"
     d=""
     id="path3844" />
  <path
     style="fill:#ff1964;fill-opacity:1;stroke:none"
     d="m 317.15905,368.40174 c -0.5031,-0.15265 -0.9097,-0.41987 -1.1998,-0.78852 -0.1337,-0.16986 -0.2431,-0.32841 -0.2431,-0.35234 0,-0.0239 -0.3603,-0.66674 -0.8007,-1.42848 -0.4404,-0.76174 -0.783,-1.40266 -0.7614,-1.42427 0.022,-0.0216 0.1301,0.11195 0.2411,0.29681 0.111,0.18486 0.4938,0.74079 0.8506,1.23541 1.2028,1.66725 2.1001,2.2581 2.9132,1.91837 0.6966,-0.29105 2.3282,-2.23634 3.6589,-4.36216 0.9919,-1.58458 0.6671,-0.85988 -0.601,1.3412 -0.6806,1.1813 -1.3004,2.27254 -1.3774,2.42497 -0.2065,0.40907 -0.8968,0.97652 -1.3682,1.12478 -0.502,0.15789 -0.8272,0.16142 -1.3122,0.0142 z"
     id="path3846" />
  <path
     style="fill:#ff1964;fill-opacity:1;stroke:none"
     d="m 310.55195,358.27485 c -0.8141,-1.41292 -1.5165,-2.69566 -1.5609,-2.85054 -0.1352,-0.47148 -0.093,-1.16057 0.097,-1.59101 0.3292,-0.74421 1.3144,-1.3876 2.1249,-1.3876 0.6803,0 1.4499,0.47674 1.9229,1.19127 0.4919,0.74298 1.1007,1.82003 1.0548,1.86593 -0.021,0.0211 -0.3676,-0.34364 -0.77,-0.81049 -0.4025,-0.46684 -0.9656,-1.02094 -1.2514,-1.23134 -1.5764,-1.16054 -2.815,-0.6799 -2.8169,1.09311 -6e-4,0.6069 0.5435,1.92881 1.8204,4.42297 0.5076,0.99146 0.9086,1.81706 0.891,1.83466 -0.018,0.0176 -0.6981,-1.12404 -1.5122,-2.53696 z"
     id="path3848" />
  <path
     style="fill:#ff1964;fill-opacity:1;stroke:none"
     d="m 315.48435,465.11902 0.023,-45.23274 0.1994,-0.3733 c 0.2151,-0.40243 0.7628,-0.99672 0.9187,-0.99672 0.056,0 0.074,0.0816 0.042,0.19887 -0.3084,1.13059 -0.5262,8.99092 -0.6741,24.3289 -0.082,8.49654 -0.2594,50.71215 -0.2631,62.60104 0,4.13083 -0.018,4.70668 -0.1345,4.70668 -0.1183,0 -0.1305,-5.01046 -0.1105,-45.23273 z"
     id="path3850" />
  <path
     style="fill:#ff1964;fill-opacity:1;stroke:none"
     d=""
     id="path3852" />
  <path
     style="fill:#ff1964;fill-opacity:1;stroke:none"
     d="m 317.17065,563.51739 c -0.6888,-0.20549 -1.1465,-0.58434 -1.4934,-1.23624 -0.052,-0.0979 -0.423,-0.74843 -0.8243,-1.4456 -0.4012,-0.69718 -0.7128,-1.28433 -0.6923,-1.30479 0.02,-0.0205 0.2281,0.25164 0.4614,0.60467 0.9909,1.49922 2.2993,2.95942 2.8339,3.16268 0.1319,0.0501 0.3137,0.0677 0.4042,0.039 1.7994,-0.57111 7.961,-10.81089 8.267,-13.73879 0.041,-0.39639 0.016,-0.56836 -0.1267,-0.84748 -0.4024,-0.78895 -1.0371,-1.13113 -1.719,-0.92682 -0.9807,0.29382 -1.915,1.29673 -3.1996,3.43466 -0.1842,0.30669 -0.3538,0.53886 -0.3767,0.51594 -0.023,-0.0229 0.3493,-0.72836 0.8272,-1.56763 1.2303,-2.16089 1.6889,-2.57543 2.8575,-2.58307 1.1807,-0.008 2.1013,0.80277 2.2645,1.9937 0.039,0.28433 0.01,0.55699 -0.095,0.87699 -0.083,0.2554 -1.5651,2.91125 -3.2923,5.90188 -1.7273,2.99063 -3.2451,5.6323 -3.3731,5.87038 -0.5571,1.03703 -1.6918,1.55815 -2.7229,1.25056 l 0,0 z"
     id="path3854" />
  <path
     style="fill:#ff1964;fill-opacity:1;stroke:none"
     d="m 317.41115,563.15292 c -0.5848,-0.2459 -1.7901,-1.66694 -3.0407,-3.58506 -1.5663,-2.40221 -3.8369,-6.67525 -4.7088,-8.86149 -0.6068,-1.52145 0.2322,-2.84801 1.6527,-2.61333 1.2547,0.20727 2.1546,1.10712 2.7378,2.73762 0.2857,0.79856 0.4416,1.03821 0.6084,0.93511 0.2252,-0.1392 0.5529,-1.52442 0.6282,-2.65573 0.096,-1.43607 0.2351,-9.10565 0.3522,-19.35704 0.07,-6.12213 0.2543,-38.87342 0.2622,-46.55857 l 0.001,-1.39211 2.0329,0 2.033,0 0,35.68364 c 0,30.01557 0.019,35.66308 0.1197,35.55421 0.066,-0.0712 0.4684,-0.70616 0.8947,-1.41106 0.9672,-1.59956 1.4038,-2.21691 1.983,-2.8043 1.2251,-1.24248 2.3444,-1.2668 2.9269,-0.0636 0.1622,0.33519 0.187,0.49357 0.1398,0.89491 -0.21,1.78731 -3.3409,7.72113 -5.9253,11.23019 -0.7551,1.02517 -1.9338,2.26195 -2.2295,2.33928 -0.1003,0.0262 -0.3112,-0.006 -0.4686,-0.0727 l 0,0 z"
     id="path3856" />
  <path
     style="fill:#ff1964;fill-opacity:1;stroke:none"
     d="m 317.41115,563.15292 c -0.5848,-0.2459 -1.7901,-1.66694 -3.0407,-3.58506 -1.5663,-2.40221 -3.8369,-6.67525 -4.7088,-8.86149 -0.6068,-1.52145 0.2322,-2.84801 1.6527,-2.61333 1.2547,0.20727 2.1546,1.10712 2.7378,2.73762 0.286,0.79937 0.4416,1.03822 0.609,0.93475 0.228,-0.14091 0.5432,-1.52486 0.6248,-2.74376 0.1011,-1.50851 0.2345,-8.81715 0.3551,-19.44543 0.071,-6.21952 0.2543,-38.71134 0.2621,-46.33759 l 0.001,-1.43631 2.0329,0 2.0329,0 0.01,35.46582 c 0,19.5062 0.035,35.53938 0.071,35.62927 0.05,0.12741 0.2549,-0.1502 0.9286,-1.25888 0.9966,-1.64029 1.4463,-2.27213 2.0361,-2.86082 1.1973,-1.19521 2.3092,-1.20157 2.8829,-0.0165 0.1623,0.33519 0.187,0.49357 0.1398,0.89491 -0.21,1.78731 -3.3409,7.72113 -5.9253,11.23019 -0.7551,1.02517 -1.9338,2.26195 -2.2295,2.33928 -0.1003,0.0262 -0.3111,-0.006 -0.4686,-0.0727 l 0,0 z"
     id="path3858" />
  <path
     style="fill:#ff1964;fill-opacity:1;stroke:none"
     d=""
     id="path3860" />
  <path
     style="fill:#ff1964;fill-opacity:1;stroke:none"
     d="m 310.30385,552.96183 c -1.3286,-2.29912 -1.3968,-2.45047 -1.3937,-3.0963 0,-0.96202 0.5744,-1.78277 1.4705,-2.11803 0.5852,-0.21898 0.9487,-0.23139 1.463,-0.0499 0.487,0.17182 0.9111,0.49671 1.2386,0.94872 0.3737,0.51592 0.3185,0.60214 -0.1166,0.18205 -1.1781,-1.13753 -2.915,-1.13358 -3.4333,0.008 -0.3978,0.87587 -0.2021,1.60844 1.1801,4.41827 0.4278,0.8696 0.763,1.59585 0.745,1.61389 -0.018,0.0181 -0.5372,-0.83986 -1.1536,-1.90646 l 0,0 z"
     id="path3862" />
  <path
     style="fill:#ff1964;fill-opacity:1;stroke:none"
     d="m 224.08415,86.206739 c -2.8621,-2.76814 -6.3237,-5.61114 -7.6834,-6.31023 -0.3368,-0.17317 -0.9115,-0.31485 -1.2772,-0.31485 -0.7755,0 -0.7171,-0.23139 0.1498,-0.59362 1.221,-0.51017 1.5523,-0.28043 6.2646,4.34481 2.3727,2.32887 4.2344,4.23597 4.1372,4.238 -0.097,0.002 -0.8132,-0.61182 -1.591,-1.36411 z"
     id="path3864" />
  <path
     style="fill:#ff1964;fill-opacity:1;stroke:none"
     d=""
     id="path3866" />
  <path
     style="fill:#ff1964;fill-opacity:1;stroke:none"
     d="m 223.32215,91.418969 c -7.6529,-7.65396 -9.2639,-9.34881 -9.4186,-9.90902 -0.1026,-0.37169 -0.159,-0.7034 -0.1252,-0.73713 0.034,-0.0337 0.4253,0.39136 0.8702,0.94465 1.1333,1.40945 7.1059,7.67861 13.043,13.690622 2.7619,2.79673 4.9859,5.120759 4.9421,5.164529 -0.044,0.0438 -4.2339,-4.075379 -9.3115,-9.153651 z"
     id="path3868" />
  <path
     style="fill:#ff1964;fill-opacity:1;stroke:none"
     d="m 320.07035,436.98395 c 0,-9.13936 0.021,-12.85227 0.048,-8.25092 0.026,4.60135 0.026,12.079 -1e-4,16.61701 -0.026,4.538 -0.048,0.77326 -0.048,-8.36609 z"
     id="path3870" />
  <path
     style="fill:#ff1964;fill-opacity:1;stroke:none"
     d="m 315.60895,457.48337 -0.043,-37.66012 0.5439,-0.61204 c 0.3313,-0.37277 0.5026,-0.48172 0.4383,-0.27869 -0.208,0.65641 -0.4465,8.06229 -0.4106,12.74813 0.02,2.62513 0.057,3.6195 0.081,2.20971 0.1158,-6.64641 0.4201,-14.5052 0.5777,-14.91965 0.1108,-0.29138 0.3093,-0.45993 0.5416,-0.45993 0.4996,0 1.3639,0.46627 1.5599,0.84152 0.7173,1.37334 0.894,9.0805 1.0291,44.89945 l 0.1162,30.80334 -2.0619,0 -2.0619,0 -0.043,-17.10314 -0.043,-17.10315 -0.091,17.14734 c -0.068,12.84135 -0.1018,7.69023 -0.1339,-20.51277 z m 0.4432,-15.59387 c -0.027,-2.98973 -0.049,-0.54359 -0.049,5.43589 0,5.97947 0.022,8.42561 0.049,5.43588 0.027,-2.98974 0.027,-7.88203 0,-10.87177 z"
     id="path3872" />
  <path
     style="fill:#ff1964;fill-opacity:1;stroke:none"
     d="m 319.84945,428.94061 c -0.06,-3.61199 -0.3626,-8.06856 -0.619,-9.10758 -0.1811,-0.73372 -0.3203,-0.93177 -0.8359,-1.18939 -0.3796,-0.18959 -0.4947,-0.30919 -0.2978,-0.30936 0.769,-6.6e-4 1.635,0.80653 1.8014,1.67911 0.056,0.29168 0.077,2.99636 0.047,6.0104 -0.03,3.01405 -0.073,4.32661 -0.096,2.91682 z"
     id="path3874" />
  <path
     style="color:#000000;fill:#ff0000;fill-opacity:1;fill-rule:nonzero;stroke:none;stroke-width:1.25;marker:none;visibility:visible;display:inline;overflow:visible;enable-background:accumulate"
     d=""
     id="path2942" />
  <path
     style="color:#000000;fill:#ff0000;fill-opacity:1;fill-rule:nonzero;stroke:none;stroke-width:1.25;marker:none;visibility:visible;display:inline;overflow:visible;enable-background:accumulate"
     d="m 306.61345,180.38767 c -3.9909,-1.23187 -5.2122,-2.04277 -5.2122,-3.46084 0,-1.1991 0.7517,-1.95878 2.1323,-2.15484 1.1727,-0.16655 2.1322,-0.59511 2.1322,-0.95235 0,-0.35723 -16.2328,-16.8525 -36.0729,-36.65615 -41.6974,-41.620859 -55.2958,-55.926951 -54.4544,-57.288411 0.7624,-1.23358 8.1493,5.77435 55.8791,53.012661 37.667,37.27915 38.8116,38.31402 39.3354,35.56498 0.3062,-1.60691 1.2293,-2.96426 2.1345,-3.13858 1.2245,-0.23582 2.0481,1.16015 3.5464,6.01117 1.0733,3.47507 1.9515,7.33952 1.9515,8.58766 0,1.94756 -0.4367,2.25617 -3.0799,2.17643 -1.6939,-0.0511 -5.4253,-0.81688 -8.292,-1.70173 l 0,0 z"
     id="path2944" />
  <path
     style="color:#000000;fill:#ff0000;fill-opacity:1;fill-rule:nonzero;stroke:none;stroke-width:1.25;marker:none;visibility:visible;display:inline;overflow:visible;enable-background:accumulate"
     d="m 316.09005,254.13546 c 0,-27.53467 0.1077,-29.42642 1.6584,-29.12807 1.53,0.29436 1.6778,2.57472 1.909,29.44713 0.2465,28.64889 0.2192,29.12807 -1.6584,29.12807 -1.8726,0 -1.909,-0.56135 -1.909,-29.44713 z"
     id="path2946" />
  <path
     style="color:#000000;fill:#ff0000;fill-opacity:1;fill-rule:nonzero;stroke:none;stroke-width:1.25;marker:none;visibility:visible;display:inline;overflow:visible;enable-background:accumulate"
     d="m 316.68735,281.45034 c -0.8274,-3.08756 -0.5981,-52.96392 0.2535,-55.13865 0.3947,-1.00783 0.9804,-1.40722 1.3016,-0.88753 0.8814,1.42626 2.0179,50.62559 1.2624,54.65279 -0.7421,3.95546 -1.9657,4.55192 -2.8175,1.37339 z"
     id="path2948" />
  <path
     style="color:#000000;fill:#ff0000;fill-opacity:1;fill-rule:nonzero;stroke:none;stroke-width:1.25;marker:none;visibility:visible;display:inline;overflow:visible;enable-background:accumulate"
     d="m 317.48775,367.58562 c -1.3967,-0.5636 -3.0149,-2.80533 -5.6042,-7.76404 -2.5094,-4.80556 -2.6659,-6.51245 -0.6167,-6.72649 0.7106,-0.0742 1.2436,0.02 1.1846,0.20927 -0.059,0.18932 0.466,1.02795 1.1667,1.86362 0.9232,1.10112 1.3798,1.35586 1.6584,0.92532 0.2115,-0.32675 0.3142,-16.60996 0.2282,-36.1849 l -0.1562,-35.59081 2.2885,0.0533 2.2885,0.0533 -0.1934,36.6036 c -0.1244,23.56406 -0.029,36.60361 0.2682,36.60361 0.2538,0 0.9252,-0.82519 1.492,-1.83375 1.3373,-2.37933 2.2362,-3.10349 3.2839,-2.64545 0.4594,0.20083 0.9814,0.3359 1.16,0.30014 0.396,-0.0793 0.2664,2.42536 -0.1426,2.75756 -0.1605,0.13031 -0.7769,1.19643 -1.3698,2.36917 -0.5929,1.17273 -1.9088,3.35829 -2.9243,4.85679 -1.0154,1.49849 -1.7242,2.72454 -1.575,2.72454 0.1492,0 0.043,0.42645 -0.236,0.94766 -0.5578,1.04244 -0.7159,1.07672 -2.2008,0.4775 l 0,0 z"
     id="path2952" />
  <path
     style="color:#000000;fill:#ff0000;fill-opacity:1;fill-rule:nonzero;stroke:none;stroke-width:1.25;marker:none;visibility:visible;display:inline;overflow:visible;enable-background:accumulate"
     d="m 316.31255,562.93732 c -0.033,-0.0749 -0.095,-0.29605 -0.1386,-0.4915 -0.044,-0.19546 -0.8347,-1.52811 -1.7578,-2.96146 -0.9231,-1.43335 -2.2984,-3.77882 -3.0562,-5.21216 -0.7577,-1.43335 -1.4859,-2.7127 -1.6182,-2.843 -0.7015,-0.69095 -0.4234,-2.35327 0.502,-3.0015 1.3307,-0.93207 2.0828,-0.60215 3.3681,1.47751 l 1.0499,1.69881 0.4479,-1.39045 c 0.2727,-0.84671 0.4385,-26.58915 0.424,-65.82791 -0.013,-35.4406 0.1077,-64.65026 0.2685,-64.91036 0.1607,-0.26009 0.44,0.058 0.6206,0.70691 l 0.3284,1.1798 0.047,-1.30304 c 0.051,-1.41375 1.0869,-1.7526 2.1394,-0.7 0.6479,0.64785 0.6052,-2.5324 1.1733,87.47267 l 0.2883,45.66764 1.1846,-1.79553 c 0.6515,-0.98754 1.6395,-2.09076 2.1956,-2.4516 0.8753,-0.56798 1.1129,-0.55419 1.7698,0.10269 0.4173,0.41732 0.6954,1.11985 0.618,1.56119 -0.187,1.06594 -2.9673,6.48022 -4.5485,8.85758 -0.6933,1.04243 -1.515,2.48531 -1.8259,3.2064 -0.4586,1.06368 -0.8346,1.29053 -1.9932,1.20225 -0.7854,-0.0599 -1.4547,-0.17007 -1.4872,-0.24494 l 0,0 z"
     id="path2954" />
</svg>
